<?xml version="1.0" standalone="no"?>
<!DOCTYPE svg PUBLIC "-//W3C//DTD SVG 20010904//EN"
 "http://www.w3.org/TR/2001/REC-SVG-20010904/DTD/svg10.dtd">
<svg version="1.0" xmlns="http://www.w3.org/2000/svg"
 width="650.000000pt" height="650.000000pt" viewBox="0 0 650.000000 650.000000"
 preserveAspectRatio="xMidYMid meet">
<metadata>
Created by potrace 1.11, written by Peter Selinger 2001-2013
</metadata>
<g transform="translate(0.000000,650.000000) scale(0.100000,-0.100000)"
fill="#000000" stroke="none">
<path d="M2976 6493 c-4 -5 -29 -9 -54 -10 -26 -1 -48 -2 -49 -3 -2 -2 -11 -3
-20 -4 -10 -1 -22 -4 -28 -7 -5 -3 -31 -5 -57 -5 -25 1 -44 -2 -42 -5 2 -3 -9
-7 -24 -7 -26 -2 -67 -9 -67 -12 0 -2 -67 -12 -87 -13 -10 -1 -18 -4 -18 -7 0
-3 -14 -7 -32 -8 -17 -2 -38 -8 -45 -14 -7 -6 -16 -8 -20 -5 -3 4 -15 1 -27
-5 -11 -7 -29 -11 -38 -9 -10 1 -18 -1 -18 -6 0 -4 -15 -9 -32 -10 -18 -2 -34
-7 -36 -13 -2 -6 -7 -8 -12 -5 -4 3 -23 -1 -41 -9 -19 -7 -43 -17 -54 -21 -11
-5 -24 -7 -28 -6 -4 0 -22 -7 -40 -16 -18 -9 -38 -16 -44 -15 -7 2 -13 -2 -13
-8 0 -6 -6 -10 -12 -8 -7 1 -23 -3 -35 -10 -13 -7 -23 -9 -23 -5 0 4 -5 0 -11
-9 -5 -10 -16 -15 -24 -12 -8 4 -15 1 -15 -5 0 -6 -6 -11 -13 -11 -17 0 -181
-80 -188 -92 -3 -5 -8 -9 -10 -8 -10 4 -59 -21 -59 -30 0 -6 -4 -9 -9 -5 -5 3
-16 -1 -24 -9 -8 -8 -17 -12 -21 -9 -3 4 -6 1 -6 -5 0 -7 -7 -12 -15 -12 -8 0
-24 -9 -35 -20 -11 -11 -23 -20 -27 -20 -5 0 -16 -7 -25 -15 -10 -8 -18 -11
-18 -7 0 4 -4 2 -8 -3 -4 -6 -43 -35 -87 -65 -89 -61 -108 -75 -142 -107 -13
-12 -23 -19 -23 -15 0 4 -5 -1 -11 -10 -5 -10 -14 -18 -19 -18 -12 0 -68 -51
-217 -196 -68 -66 -126 -118 -130 -115 -3 3 -3 1 0 -6 4 -6 -5 -21 -19 -32
-15 -12 -24 -21 -20 -21 3 0 -17 -24 -44 -52 -27 -29 -50 -56 -50 -60 0 -7
-24 -36 -72 -88 -9 -10 -14 -20 -12 -22 2 -3 -7 -15 -21 -28 -14 -13 -25 -27
-25 -30 0 -4 -23 -41 -50 -83 -28 -42 -50 -81 -50 -86 0 -6 -4 -11 -8 -11 -5
0 -15 -12 -23 -27 -7 -16 -24 -45 -36 -65 -13 -21 -23 -44 -23 -53 0 -8 -4
-15 -8 -15 -4 0 -21 -28 -37 -62 -16 -35 -32 -65 -35 -68 -3 -3 -6 -10 -7 -15
-1 -6 -15 -39 -31 -75 -26 -57 -42 -94 -47 -110 -1 -3 -5 -13 -8 -22 -4 -10
-10 -26 -14 -35 -3 -10 -5 -21 -5 -25 1 -5 -2 -8 -8 -8 -5 0 -7 -7 -4 -15 4
-8 1 -15 -6 -15 -6 0 -9 -4 -5 -9 3 -5 1 -12 -5 -16 -6 -4 -8 -10 -5 -15 3 -4
-2 -20 -10 -36 -7 -15 -12 -31 -9 -36 3 -4 0 -8 -7 -8 -7 0 -10 -3 -7 -6 4 -3
2 -20 -4 -37 -5 -18 -10 -40 -10 -49 1 -10 -3 -18 -6 -18 -7 0 -11 -16 -14
-57 -1 -7 -4 -13 -8 -13 -3 0 -6 -12 -5 -27 0 -16 -3 -35 -7 -43 -11 -21 -37
-173 -32 -182 3 -4 2 -8 -3 -8 -4 0 -9 -10 -9 -22 -7 -106 -9 -126 -14 -123
-4 2 -6 -13 -5 -33 1 -20 -3 -43 -9 -51 -8 -11 -8 -13 2 -7 6 4 12 2 12 -3 0
-6 -4 -11 -8 -11 -5 0 -9 -115 -9 -255 0 -140 3 -253 6 -251 3 2 7 -26 8 -62
1 -37 4 -78 7 -92 6 -26 10 -57 22 -155 3 -27 10 -55 16 -62 6 -7 4 -13 -4
-16 -10 -4 -10 -6 0 -6 7 -1 12 -15 12 -36 0 -19 4 -35 8 -35 4 0 9 -10 9 -22
3 -46 7 -68 15 -68 4 0 5 -9 3 -20 -2 -11 3 -24 13 -30 10 -5 12 -10 4 -10
-10 0 -9 -7 3 -30 8 -16 15 -32 14 -35 -3 -10 35 -135 41 -135 3 0 7 -12 8
-27 1 -15 7 -32 12 -37 6 -6 10 -16 10 -23 0 -7 8 -32 19 -56 10 -23 24 -55
31 -72 8 -16 13 -33 12 -37 -1 -5 3 -8 9 -8 5 0 8 -4 4 -9 -3 -5 2 -17 11 -25
8 -9 13 -16 10 -16 -3 0 3 -17 14 -37 11 -21 20 -43 20 -50 0 -7 5 -13 11 -13
5 0 7 -4 4 -10 -3 -5 -2 -10 3 -10 6 0 13 -11 16 -25 4 -14 11 -25 17 -25 6 0
8 -4 5 -9 -3 -5 1 -14 9 -21 8 -7 12 -16 9 -21 -3 -5 0 -9 5 -9 6 0 11 -7 11
-15 0 -9 7 -18 15 -21 8 -4 13 -9 10 -13 -4 -7 7 -26 57 -100 10 -14 25 -39
34 -56 9 -16 23 -34 30 -38 8 -4 14 -15 14 -22 0 -8 3 -15 8 -15 9 0 46 -62
44 -72 -1 -5 4 -8 11 -8 11 0 33 -27 39 -47 1 -5 14 -20 28 -34 14 -14 35 -39
47 -55 20 -27 77 -89 170 -187 20 -20 40 -37 45 -37 5 0 6 -5 3 -10 -3 -6 1
-10 9 -10 9 0 16 -7 16 -17 0 -9 3 -14 6 -11 3 4 18 -7 33 -23 15 -16 31 -26
34 -22 4 3 7 0 7 -8 1 -8 19 -27 41 -44 22 -16 50 -40 61 -52 12 -12 25 -20
30 -17 4 3 8 -3 8 -12 0 -10 3 -15 6 -11 3 3 14 -2 25 -11 10 -10 28 -25 39
-34 11 -10 24 -18 28 -18 4 0 14 -9 21 -19 8 -11 20 -17 28 -14 7 3 13 1 13
-5 0 -9 54 -48 85 -61 5 -2 18 -12 29 -23 11 -10 26 -18 33 -18 7 0 13 -5 13
-11 0 -5 5 -7 10 -4 6 3 10 1 10 -4 0 -6 17 -18 37 -26 21 -9 45 -23 55 -32
10 -9 18 -12 18 -7 0 5 4 4 8 -2 9 -14 210 -114 228 -114 8 0 14 -4 14 -10 0
-5 9 -10 19 -10 11 0 23 -4 26 -10 3 -5 15 -10 26 -10 11 0 18 -4 15 -8 -4 -7
10 -11 52 -14 6 -1 12 -4 12 -8 0 -4 21 -13 48 -20 26 -7 52 -16 57 -20 14
-10 66 -24 87 -23 10 0 15 -3 13 -7 -4 -6 58 -24 150 -45 5 -1 17 -5 25 -8 8
-4 29 -8 45 -10 17 -2 37 -7 45 -12 8 -5 28 -8 44 -6 20 2 26 -1 21 -9 -6 -9
-2 -9 13 -1 12 6 22 7 24 2 2 -5 23 -12 48 -15 25 -2 45 -5 45 -6 0 -2 53 -8
98 -11 15 -1 27 -5 27 -9 0 -3 25 -6 55 -5 31 1 58 -2 61 -6 3 -5 10 -9 15 -9
6 0 7 4 4 10 -4 6 2 7 17 1 34 -12 446 -12 454 1 4 6 10 5 15 -3 5 -8 9 -10 9
-4 0 6 27 10 60 10 33 -1 60 3 60 7 0 4 10 8 23 7 66 -1 201 21 209 35 6 8 8
7 8 -2 0 -10 5 -10 20 -2 10 6 23 10 27 9 4 -1 10 0 13 1 11 4 37 9 70 15 19
3 42 9 50 12 17 7 24 9 65 18 17 3 35 7 40 8 6 2 16 6 23 10 6 5 12 6 12 3 0
-3 15 1 34 9 18 8 36 11 40 8 3 -4 6 -1 6 5 0 7 9 12 20 12 10 0 32 5 47 11
15 6 37 15 48 20 11 4 31 11 45 15 14 4 38 16 54 27 16 12 26 15 21 7 -5 -7
13 -2 39 13 27 15 52 25 56 22 4 -3 11 2 14 11 4 9 9 14 13 11 3 -4 15 -1 27
5 11 7 24 11 29 10 4 -1 7 3 7 8 0 6 9 10 20 10 11 0 20 5 20 10 0 6 8 10 17
10 9 0 24 6 32 14 9 8 22 16 30 18 8 2 23 11 33 21 10 10 23 15 28 12 6 -4 10
-1 10 5 0 6 14 16 30 21 17 6 30 15 30 21 0 5 4 7 9 3 6 -3 14 3 20 12 6 10
11 15 11 11 0 -8 145 86 168 108 6 7 21 16 32 19 11 4 18 11 15 16 -4 5 -1 9
6 9 7 0 31 16 54 35 23 19 46 31 50 27 5 -4 5 -2 2 4 -4 6 14 26 40 44 25 18
75 61 109 95 35 34 64 60 64 57 0 -3 11 8 23 26 13 17 26 30 28 27 3 -2 13 9
24 26 11 16 26 29 33 29 7 0 11 4 8 9 -3 5 6 16 20 26 14 9 24 19 21 21 -3 3
16 25 41 49 25 25 43 45 39 45 -4 0 7 13 23 29 17 15 30 33 30 40 0 6 5 11 11
11 5 0 7 4 4 10 -3 5 -2 10 4 10 5 0 26 24 47 53 21 28 43 55 49 59 5 4 6 8 1
8 -6 0 2 13 17 28 15 16 24 31 20 35 -3 4 -1 7 5 7 7 0 12 7 12 15 0 8 4 15 9
15 5 0 14 13 21 30 7 16 16 27 21 24 5 -3 9 -2 8 3 -3 8 21 64 31 73 18 17
122 220 113 220 -4 0 -3 4 3 8 14 8 54 90 54 109 0 7 4 13 10 13 5 0 9 3 9 8
-1 4 0 9 1 12 1 3 3 12 5 20 1 9 12 36 23 60 17 39 43 110 48 133 1 4 3 9 4
12 1 3 4 10 5 15 1 6 4 12 5 15 1 3 4 10 5 15 1 6 4 13 5 18 1 4 2 10 1 14 0
5 3 8 8 8 5 0 8 8 6 18 -1 9 2 26 8 37 6 11 10 26 9 33 -2 6 3 12 10 12 9 0 9
3 -2 10 -12 8 -12 10 -1 10 8 0 11 7 8 20 -3 11 -2 20 2 20 7 0 31 96 32 130
0 8 3 22 6 30 8 20 11 38 17 85 3 22 8 57 10 79 3 21 8 41 11 44 2 3 0 11 -7
19 -9 11 -7 12 8 6 16 -6 17 -4 7 9 -7 8 -10 18 -7 21 4 4 8 31 9 60 2 30 6
64 10 77 6 17 4 21 -6 14 -11 -6 -12 -5 -2 7 9 12 11 77 8 265 -6 279 -6 294
-15 294 -9 0 -6 32 5 49 5 10 4 12 -3 7 -7 -4 -12 -1 -13 6 -1 7 -2 33 -4 58
-2 25 -4 45 -5 45 -3 0 -9 39 -12 75 -2 19 -6 37 -10 40 -4 3 -8 25 -9 48 -2
23 -6 42 -9 42 -3 0 -7 14 -8 32 -2 18 -6 35 -10 38 -7 5 -10 21 -17 80 -2 19
-8 34 -13 33 -6 -1 -9 9 -7 23 1 13 -1 27 -5 29 -4 2 -13 26 -20 52 -7 27 -17
53 -22 60 -6 7 -7 17 -3 23 3 5 1 10 -6 10 -7 0 -9 3 -6 7 4 3 3 11 -1 17 -5
6 -19 40 -32 76 -13 36 -27 69 -32 74 -4 6 -8 18 -8 28 0 10 -4 18 -10 18 -5
0 -10 6 -10 14 0 17 -70 158 -83 167 -5 3 -8 10 -8 15 1 17 -10 44 -20 44 -5
0 -9 9 -9 20 0 11 -4 20 -10 20 -5 0 -10 7 -10 15 0 8 -4 15 -8 15 -5 0 -14
16 -22 35 -8 19 -17 35 -22 35 -4 0 -8 7 -8 15 0 8 -4 15 -10 15 -5 0 -10 7
-10 15 0 8 -5 15 -11 15 -5 0 -8 4 -5 9 4 5 3 11 -1 13 -5 1 -24 26 -43 55
-19 28 -38 49 -42 47 -4 -3 -5 2 -2 10 3 9 2 16 -3 16 -5 0 -17 15 -28 33 -10
17 -27 40 -38 50 -11 9 -17 17 -14 17 3 0 -9 16 -26 35 -18 19 -48 53 -67 76
-19 23 -59 67 -87 97 -29 30 -53 59 -53 63 0 4 -9 11 -20 14 -11 4 -18 11 -15
16 4 5 2 9 -4 9 -5 0 -34 25 -64 55 -30 30 -57 55 -61 55 -3 0 -19 14 -36 31
-16 18 -30 29 -30 26 0 -4 -13 7 -28 23 -16 16 -32 27 -35 23 -4 -3 -7 1 -7
10 0 9 -7 17 -15 17 -8 0 -15 5 -15 10 0 6 -7 10 -15 10 -8 0 -15 3 -15 8 0 4
-17 18 -38 32 -20 14 -39 27 -42 30 -13 14 -210 140 -220 140 -5 0 -10 5 -10
11 0 6 -7 8 -16 5 -8 -3 -12 -2 -9 4 3 6 0 10 -8 10 -8 0 -20 7 -27 15 -7 8
-16 13 -20 10 -5 -3 -10 -2 -12 2 -5 12 -88 55 -88 46 0 -4 -4 -3 -8 3 -8 14
-110 64 -129 64 -7 0 -13 5 -13 10 0 6 -8 10 -18 10 -10 0 -22 3 -26 8 -4 4
-11 7 -14 7 -4 1 -29 11 -56 23 -27 12 -53 22 -57 22 -9 0 -17 4 -70 31 -16 8
-19 8 -14 -1 4 -7 -4 -5 -17 4 -14 9 -28 13 -31 9 -4 -3 -7 -1 -7 6 0 7 -4 10
-8 7 -5 -3 -20 1 -35 9 -14 7 -27 11 -30 9 -2 -2 -30 5 -63 16 -32 11 -60 20
-62 20 -1 -1 -19 2 -40 7 -50 10 -52 10 -54 13 -4 3 -46 10 -75 12 -13 1 -23
5 -23 8 0 6 -31 10 -77 10 -13 0 -23 4 -23 8 0 4 -19 7 -42 7 -24 -1 -47 1
-53 4 -5 3 -18 6 -27 7 -10 1 -19 2 -20 3 -18 14 -598 23 -598 9 0 -7 -5 -7
-13 1 -10 8 -17 7 -27 -2 -10 -9 -11 -9 -6 1 8 13 3 16 -8 5z"/>
</g>
</svg>
