<?xml version="1.0" encoding="utf-8"?>
<!-- Generator: Adobe Illustrator 16.0.0, SVG Export Plug-In . SVG Version: 6.00 Build 0)  -->
<!DOCTYPE svg PUBLIC "-//W3C//DTD SVG 1.1//EN" "http://www.w3.org/Graphics/SVG/1.1/DTD/svg11.dtd">
<svg version="1.1" id="Capa_1" xmlns="http://www.w3.org/2000/svg" xmlns:xlink="http://www.w3.org/1999/xlink" x="0px" y="0px"
	 width="604.967px" height="476.875px" viewBox="0 0 604.967 476.875" enable-background="new 0 0 604.967 476.875"
	 xml:space="preserve">
<linearGradient id="path8292-2_1_" gradientUnits="userSpaceOnUse" x1="36.2456" y1="11.4688" x2="240.627" y2="401.7223" gradientTransform="matrix(1 0 0 -1 84 451.3408)">
	<stop  offset="0" style="stop-color:#0B8237"/>
	<stop  offset="0.5" style="stop-color:#60BF30"/>
	<stop  offset="1" style="stop-color:#0B8237"/>
</linearGradient>
<path id="path8292-2" fill="url(#path8292-2_1_)" d="M228.452,0.001c-0.845,0.005-1.689,0.025-2.53,0.058
	c-19.06,0.81-37.6,6.87-54.4,15.72c-10.54,5.36-20.499,11.829-30.089,18.739c-7.32,5.29-14.371,10.95-21.111,16.97
	c-5.82,5.15-11.459,10.501-16.889,16.061c-7.7,7.92-15.001,16.21-21.941,24.8c-5.76,7.09-11.169,14.459-16.409,21.939
	c-6.35,9.09-12.22,18.51-17.78,28.1c-8.97,15.58-16.861,31.78-23.581,48.45c-4.14,10.38-7.89,20.92-11.05,31.641
	c-3.25,11.11-6.03,22.359-8.05,33.759c-1.18,6.971-2.289,13.951-2.969,20.99c-1.04,9.93-1.792,19.899-1.631,29.89
	c-0.04,8.8,0.591,17.591,1.69,26.312c0.75,6.33,1.87,12.609,3.31,18.82c3.98,16.43,9.301,33.148,20.261,46.368
	c11.59,14.681,29,24.411,47.48,27.062c25.95,3.729,52.889-3.631,74.409-18.319c-6.15,1.56-12.119,3.84-18.439,4.689
	c-11.31,1.95-23.36,1.328-33.9-3.48c-12.06-5.431-21.28-16.209-25.95-28.459c-0.16-0.4-0.47-1.181-0.629-1.58
	c-2.8-7.4-4.381-15.211-5.111-23.07c-0.46-5.95-0.47-11.959,0.28-17.88c0.79-7.909,2.55-15.72,5.32-23.17
	c3.21-8.682,7.71-16.95,13.871-23.909c5.17-5.819,11.48-10.711,18.62-13.86c6.1-2.73,12.729-3.939,19.31-4.811
	c19.08-1.77,35.26,10.561,48.87,22.33c7.22,6.229,14.06,12.88,21.03,19.38c3.77,3.5,7.4,7.149,11.12,10.699
	c8.86,7.221,17.061,15.271,26.041,22.371c19.79,16.97,40.799,32.618,63.319,45.778c7.7,4.5,15.761,8.34,24.011,11.729
	c14.92,5.87,30.369,10.562,46.18,13.261c-22.53-5.239-43.551-16.33-60.741-31.79c-5.72-5.06-11.149-10.429-16.209-16.14
	c-11.32-12.629-21.17-26.51-30.19-40.84c-0.31-0.472-0.929-1.422-1.239-1.892c-5.59-8.961-11.01-18.02-16.35-27.118
	c-4.98-8.49-10.09-16.892-15.22-25.271c-1.2-1.979-2.36-3.971-3.57-5.939c-18.26-29.351-40.89-56.641-69.67-76.209
	c-2.93-1.86-6.439-4.651-4.939-8.611c4.1-7.14,7.229-14.929,8.08-23.169c0.68-6.04,0.191-12.631-3.359-17.761
	c-3.92-5.69-11.141-8.21-17.811-8.22c-7.87-0.07-14.809,4.911-19.489,10.891c-1.43,1.47-2.2,5-4.771,4.25
	c-0.58-5.01,2.24-9.629,3.75-14.259c3.36-8.76,7.389-17.24,11.739-25.55c4.86-9.17,10.33-18.021,16.27-26.541
	c4.1-5.9,8.51-11.589,13.1-17.109c5.71-6.88,11.821-13.431,18.411-19.481c1.6-1.55,3.319-2.979,5.019-4.409
	c5.51-6.39,12.691-11.109,19.361-16.209c13.77-9.41,28.529-19.28,45.639-20.6c8.82-0.91,17.501,1.79,25.231,5.859
	C254.234,3.076,241.133-0.074,228.452,0.001z"/>
<radialGradient id="path8294-3_1_" cx="227.2388" cy="239.1499" r="242.1929" gradientTransform="matrix(1 0 0 -1 84 451.3408)" gradientUnits="userSpaceOnUse">
	<stop  offset="0" style="stop-color:#FBCA06"/>
	<stop  offset="1" style="stop-color:#F36618"/>
</radialGradient>
<path id="path8294-3" fill="url(#path8294-3_1_)" d="M242.222,5.223c-1.097,0.005-2.198,0.063-3.3,0.176
	c-17.11,1.32-31.869,11.19-45.639,20.6c-6.67,5.1-13.851,9.819-19.361,16.209c10.25-7.79,20.66-15.911,33.05-19.991
	c9.84-3.49,20.82-3.99,30.77-0.68c4.79,1.68,8.691,5.16,11.791,9.1c9.11,12.68,11.68,28.65,13.15,43.83
	c0.94,11.27,0.959,22.591,0.359,33.881c-0.51,9.52-1.43,19.029-2.68,28.489c-3.58,26.47-9.601,52.64-18.241,77.93
	c-3.08,8.93-6.58,17.73-10.6,26.29c-4.28,9.28-8.91,18.42-13.93,27.33c1.21,1.971,2.37,3.961,3.57,5.94
	c5.13,8.38,10.24,16.78,15.22,25.271c5.34,9.101,10.76,18.158,16.35,27.119c9.5-4.45,19.62-7.829,30.12-8.77
	c14.18-1.49,28.489,1.649,41.469,7.301c11.812,5.129,22.642,12.249,32.882,20.009c12.041,9.33,23.189,19.74,34.101,30.352
	c8.56,8.42,16.919,17.029,25.169,25.739c5.51,5.87,10.99,11.761,16.32,17.811c1.979-0.29,3.939-0.689,5.891-1.13
	c3.28-0.73,6.539-1.591,9.759-2.57c10.67-3.29,20.92-8.15,29.801-14.95c9.569-7.53,17.63-17.12,22.892-28.141
	c1.81-3.92,3.26-8.01,4.199-12.22l0.279-1.48c-10.931,0.131-21.88-1.009-32.608-3.039c-13.392-2.49-26.57-6.069-39.37-10.729
	c-14.95-5.31-29.421-11.931-43.221-19.739c-9.221-5.271-17.99-11.28-26.271-17.9c-3.93-3.2-7.699-6.59-11.289-10.149
	c-10.068-9.971-18.871-21.59-23.881-34.949c-2.98-7.95-4.391-16.569-3.25-25.03c0.67-4.76,1.99-9.451,4.131-13.761
	c5.46-11.37,16.07-19.378,27.43-24.269c13.45-5.86,28.11-8.441,42.681-9.361c6.359-0.4,12.729-0.309,19.101-0.089
	c5.619,0.25,11.24,0.689,16.82,1.459c15.75,2.08,31.2,6.3,45.819,12.521c5.739,2.45,11.399,5.11,16.859,8.129
	c4.159,2.23,8.239,4.62,12.159,7.25c4.818,3.28,9.551,6.711,13.911,10.591c4.698,4.07,9.02,8.559,12.93,13.388
	c10.229,12.99,17.319,29.932,14.459,46.672c3.99-16.971,0.03-34.85-7.709-50.159c-1.131-2.24-2.36-4.421-3.63-6.571
	c-4.13-7.08-9.08-13.64-14.4-19.87c-1.31-1.5-2.649-2.969-4.021-4.41c-2.859-2.93-5.79-5.8-8.79-8.57
	c-4.26-3.91-8.68-7.63-13.33-11.041c-1.24-0.94-2.51-1.86-3.771-2.75c-4.68-3.22-9.438-6.299-14.35-9.139
	c-2.29-1.23-4.56-2.491-6.729-3.911c-13.37-5.22-27.271-8.98-41.34-11.73c-6.579-1.29-13.19-2.349-19.832-3.259
	c-6.8-0.92-13.629-1.61-20.479-2.12c-16.03-1.26-32.141-1.461-48.2-0.611c-1.81-0.52-2.789-1.9-2.479-3.8
	c3.131-8.88,5.281-18.939,1.75-28.039c-3.56-9.68-15.779-14.79-25.219-10.8c-7.262,3.01-12.24,9.55-16.051,16.17
	c-1.84,3.1-2.989,7.169-6.589,8.68c-3.43-1.2-1.491-5.941-1.681-8.661c0.81-8.51,0.911-17.079,0.541-25.619
	c-0.5-11.04-1.779-22.051-3.909-32.891c-3.15-15.87-7.96-31.65-16.32-45.6c-3.16-5.02-6.79-9.84-11.33-13.7
	C257.39,7.698,249.898,5.187,242.222,5.223z M190.442,313.54c-8.92,13.32-18.419,26.25-28.81,38.47
	c-6.85,8.03-14.08,15.771-21.95,22.841c-9.01,8.16-18.97,15.601-30.38,20.039c-9.14,3.471-20.101,4.102-28.731-1.06
	c-5.35-3.101-8.739-8.479-11.689-13.72c4.67,12.25,13.89,23.028,25.95,28.459c10.54,4.81,22.59,5.432,33.9,3.48
	c6.32-0.851,12.289-3.131,18.439-4.689c6.22-4.41,12.312-9.011,18.281-13.761c8.59-6.75,16.74-14.02,25.05-21.1
	c10.52-9.021,20.789-18.382,32.019-26.531c-6.89-7.34-14.08-14.38-20.959-21.729C197.843,320.689,194.212,317.04,190.442,313.54z"/>
<radialGradient id="path8334-7_1_" cx="456.2661" cy="77.2847" r="284.7818" gradientTransform="matrix(1 0 0 -1 84 451.3408)" gradientUnits="userSpaceOnUse">
	<stop  offset="0" style="stop-color:#4ABEEE"/>
	<stop  offset="1" style="stop-color:#2157A3"/>
</radialGradient>
<path id="path8334-7" fill="url(#path8334-7_1_)" d="M475.292,173.239c2.171,1.42,4.439,2.681,6.729,3.911
	c4.91,2.84,9.67,5.919,14.35,9.139c1.262,0.89,2.53,1.81,3.771,2.75c4.649,3.41,9.07,7.131,13.33,11.041
	c3,2.77,5.931,5.641,8.79,8.57c1.37,1.44,2.711,2.91,4.021,4.41c5.32,6.23,10.271,12.79,14.4,19.87
	c1.27,2.15,2.499,4.331,3.63,6.571c7.739,15.31,11.699,33.188,7.709,50.159c-0.64,2.988-1.66,5.959-3.779,8.259
	c-4.181-0.129-6.971-3.47-10.351-5.418c-4.74-2.851-10.549-4.433-16.009-2.991c-5.53,1.221-9.79,5.521-12.63,10.221
	c-3.9,6.431-4.32,14.229-3.921,21.551c0.699,10.938,2.439,21.948,0.899,32.889c-0.189,1.5-0.399,3-0.62,4.5l-0.279,1.481
	c-0.939,4.21-2.391,8.299-4.199,12.219c-5.262,11.021-13.321,20.609-22.892,28.141c-8.881,6.8-19.131,11.66-29.801,14.95
	c-3.22,0.98-6.479,1.84-9.759,2.57c-1.95,0.439-3.911,0.84-5.891,1.13c-3.021,0.38-6.021,0.851-9.039,1.22
	c-9,1.021-18.041,1.3-27.092,1.039c-10.24-0.489-20.459-1.5-30.569-3.199c-1.671-0.261-3.33-0.539-4.979-0.84
	c-15.811-2.699-31.26-7.391-46.18-13.261c-8.25-3.391-16.311-7.229-24.011-11.729c-22.52-13.16-43.529-28.81-63.319-45.778
	c-8.98-7.102-17.181-15.15-26.041-22.371c6.88,7.351,14.069,14.391,20.959,21.729c12.15,12.779,24.36,25.512,36.521,38.281
	c25.22,27.319,54.709,51.04,88.129,67.55c27.681,13.851,58.031,22.819,88.98,24.779l1.819-0.22c5.64-0.092,11.25,0.84,16.891,0.391
	c3.53-0.271,7.069-0.471,10.609-0.25c9.87-0.561,19.62-2.521,29.2-4.891c14.96-3.92,29.471-9.67,42.831-17.5
	c13.34-7.632,25.46-17.401,35.778-28.791c12.59-13.98,22.03-30.82,27.07-48.95c6.71-23.92,5.93-49.698-1.19-73.438
	c-11.89-39.91-38.541-74.291-70.939-99.891c-8.54-6.61-17.47-12.729-26.909-17.979C492.943,180.509,484.402,176.12,475.292,173.239z
	"/>
</svg>
