<?xml version="1.0" encoding="utf-8"?>
<!-- Generator: Adobe Illustrator 16.0.0, SVG Export Plug-In . SVG Version: 6.00 Build 0)  -->
<!DOCTYPE svg PUBLIC "-//W3C//DTD SVG 1.1//EN" "http://www.w3.org/Graphics/SVG/1.1/DTD/svg11.dtd">
<svg version="1.1"
	 id="svg8288" sodipodi:docname="big_button.svg" inkscape:version="0.91 r13725" xmlns:dc="http://purl.org/dc/elements/1.1/" xmlns:cc="http://creativecommons.org/ns#" xmlns:rdf="http://www.w3.org/1999/02/22-rdf-syntax-ns#" xmlns:svg="http://www.w3.org/2000/svg" xmlns:sodipodi="http://sodipodi.sourceforge.net/DTD/sodipodi-0.dtd" xmlns:inkscape="http://www.inkscape.org/namespaces/inkscape"
	 xmlns="http://www.w3.org/2000/svg" xmlns:xlink="http://www.w3.org/1999/xlink" x="0px" y="0px" width="606px" height="478px"
	 viewBox="0 0 606 478" enable-background="new 0 0 606 478" xml:space="preserve">
<sodipodi:namedview  id="namedview8418" inkscape:current-layer="layer1" inkscape:window-y="-8" inkscape:window-x="-8" inkscape:window-height="706" inkscape:window-width="1360" inkscape:pageshadow="2" inkscape:pageopacity="0" bordercolor="#666666" showgrid="false" pagecolor="#ffffff" guidetolerance="10" inkscape:cy="232.7523" gridtolerance="10" inkscape:cx="292.74798" objecttolerance="10" borderopacity="1" inkscape:zoom="0.78995816" inkscape:window-maximized="1">
	</sodipodi:namedview>
<path id="path8290" fill="#FFFFFF" d="M0,0h606v478H463.71l1.85-0.91c9.87-0.56,19.62-2.52,29.2-4.89
	c14.96-3.92,29.471-9.67,42.83-17.5c13.34-7.63,25.46-17.4,35.78-28.79c12.59-13.98,22.03-30.82,27.07-48.95
	c6.71-23.92,5.93-49.7-1.19-73.44c-11.89-39.91-38.54-74.29-70.94-99.89c-8.54-6.61-17.47-12.73-26.909-17.98
	c-8.37-4.55-16.91-8.94-26.021-11.82c-13.37-5.22-27.27-8.98-41.34-11.73c-6.58-1.29-13.19-2.35-19.83-3.26
	c-6.8-0.92-13.63-1.61-20.479-2.12c-16.03-1.26-32.141-1.46-48.2-0.61c-1.811-0.52-2.79-1.9-2.48-3.8
	c3.13-8.88,5.28-18.94,1.75-28.04c-3.56-9.68-15.78-14.79-25.22-10.8c-7.26,3.01-12.24,9.55-16.051,16.17
	c-1.839,3.1-2.989,7.17-6.589,8.68c-3.43-1.2-1.49-5.94-1.68-8.66c0.81-8.51,0.91-17.08,0.54-25.62
	c-0.5-11.04-1.78-22.05-3.91-32.89c-3.15-15.87-7.96-31.65-16.32-45.6c-3.16-5.02-6.79-9.84-11.33-13.7
	c-10.58-8.73-24.78-11.73-38.23-11.2c-19.06,0.81-37.6,6.87-54.4,15.72c-10.54,5.36-20.5,11.83-30.09,18.74
	c-7.32,5.29-14.37,10.95-21.11,16.97c-5.82,5.15-11.46,10.5-16.89,16.06c-7.7,7.92-15,16.21-21.94,24.8
	c-5.76,7.09-11.17,14.46-16.41,21.94c-6.35,9.09-12.22,18.51-17.78,28.1c-8.97,15.58-16.86,31.78-23.58,48.45
	c-4.14,10.38-7.89,20.92-11.05,31.64c-3.25,11.11-6.03,22.36-8.05,33.76c-1.18,6.97-2.29,13.95-2.97,20.99
	c-1.04,9.93-1.79,19.9-1.63,29.89c-0.04,8.8,0.59,17.59,1.69,26.31c0.75,6.33,1.87,12.61,3.31,18.82
	c3.98,16.43,9.3,33.15,20.26,46.37c11.59,14.68,29,24.41,47.48,27.06c25.95,3.73,52.89-3.63,74.41-18.319
	c6.22-4.41,12.31-9.01,18.28-13.761c8.59-6.75,16.74-14.02,25.05-21.1c10.52-9.02,20.79-18.38,32.02-26.529
	c12.15,12.779,24.36,25.51,36.52,38.279c25.22,27.32,54.71,51.04,88.13,67.55c27.681,13.851,58.03,22.82,88.98,24.78l0.99,0.83H0V0z
	"/>
<path id="path8292" fill="#0B8237" d="M171.61,16.37c16.8-8.85,35.34-14.91,54.4-15.72c13.45-0.53,27.65,2.47,38.23,11.2
	c-7.73-4.07-16.41-6.77-25.23-5.86c-17.11,1.32-31.87,11.19-45.64,20.6C186.27,22.87,178.17,21.02,171.61,16.37z"/>
<path id="path8294" fill="#F57B14" d="M193.37,26.59c13.77-9.41,28.53-19.28,45.64-20.6c8.82-0.91,17.5,1.79,25.23,5.86
	c4.54,3.86,8.17,8.68,11.33,13.7c-8.55,2.39-17.66,2.24-25.95,5.68c-3.1-3.94-7-7.42-11.79-9.1c-9.95-3.31-20.93-2.81-30.77,0.68
	c-12.39,4.08-22.8,12.2-33.05,19.99C179.52,36.41,186.7,31.69,193.37,26.59z"/>
<path id="path8296" fill="#198C36" d="M141.52,35.11c9.59-6.91,19.55-13.38,30.09-18.74c6.56,4.65,14.66,6.5,21.76,10.22
	c-6.67,5.1-13.85,9.82-19.36,16.21c-1.7,1.43-3.42,2.86-5.02,4.41c-6.04-1.63-11.52-4.74-17.33-7.01
	C148.2,38.69,144.48,37.57,141.52,35.11z"/>
<path id="path8298" fill="#FFFFFF" d="M207.06,22.81c9.84-3.49,20.82-3.99,30.77-0.68c4.79,1.68,8.69,5.16,11.79,9.1
	c9.11,12.68,11.68,28.65,13.15,43.83c0.94,11.27,0.96,22.59,0.36,33.88c-0.51,9.52-1.43,19.03-2.68,28.49
	c-3.58,26.47-9.6,52.64-18.24,77.93c-3.08,8.93-6.58,17.73-10.6,26.291c-4.28,9.279-8.91,18.42-13.93,27.33
	c-18.26-29.351-40.89-56.641-69.67-76.21c-2.93-1.86-6.44-4.65-4.94-8.61c4.1-7.14,7.23-14.93,8.08-23.17
	c0.68-6.04,0.19-12.63-3.36-17.76c-3.92-5.69-11.14-8.21-17.81-8.22c-7.87-0.07-14.81,4.91-19.49,10.89c-1.43,1.47-2.2,5-4.77,4.25
	c-0.58-5.01,2.24-9.63,3.75-14.26c3.36-8.76,7.39-17.24,11.74-25.55c4.86-9.17,10.33-18.02,16.27-26.54
	c4.1-5.9,8.51-11.59,13.1-17.11c5.71-6.88,11.82-13.43,18.41-19.48c1.6-1.55,3.32-2.98,5.02-4.41
	C184.26,35.01,194.67,26.89,207.06,22.81z"/>
<path id="path8300" fill="#F68E11" d="M249.62,31.23c8.29-3.44,17.4-3.29,25.95-5.68c8.36,13.95,13.17,29.73,16.32,45.6
	c-4.28,0.93-8.68,0.75-12.99,1.44c-5.38,0.77-10.73,1.76-16.13,2.47C261.3,59.88,258.73,43.91,249.62,31.23z"/>
<path id="path8302" fill="#259535" d="M120.41,52.08c6.74-6.02,13.79-11.68,21.11-16.97c2.96,2.46,6.68,3.58,10.14,5.09
	c5.81,2.27,11.29,5.38,17.33,7.01c-6.59,6.05-12.7,12.6-18.41,19.48c-3.1-3.49-7.95-4.19-11.96-6.2
	C132.58,57.61,126.05,55.74,120.41,52.08z"/>
<path id="path8304" fill="#2F9C34" d="M103.52,68.14c5.43-5.56,11.07-10.91,16.89-16.06c5.64,3.66,12.17,5.53,18.21,8.41
	c4.01,2.01,8.86,2.71,11.96,6.2c-4.59,5.52-9,11.21-13.1,17.11C126.6,77.67,114.29,74.43,103.52,68.14z"/>
<path id="path8306" fill="#3BA533" d="M81.58,92.94c6.94-8.59,14.24-16.88,21.94-24.8c10.77,6.29,23.08,9.53,33.96,15.66
	c-5.94,8.52-11.41,17.37-16.27,26.54c-7.79-2.83-15.27-6.42-22.93-9.58C92.71,98.18,86.73,96.39,81.58,92.94z"/>
<path id="path8308" fill="#F8A00E" d="M291.89,71.15c2.13,10.84,3.41,21.85,3.91,32.89c-11.08-0.71-22.36,0.66-32.67,4.9
	c0.6-11.29,0.58-22.61-0.36-33.88c5.4-0.71,10.75-1.7,16.13-2.47C283.21,71.9,287.61,72.08,291.89,71.15z"/>
<path id="path8310" fill="#48AE32" d="M65.17,114.88c5.24-7.48,10.65-14.85,16.41-21.94c5.15,3.45,11.13,5.24,16.7,7.82
	c7.66,3.16,15.14,6.75,22.93,9.58c-4.35,8.31-8.38,16.79-11.74,25.55c-1.43-1.03-2.86-2.1-4.48-2.83
	c-11.96-5.06-23.87-10.24-35.92-15.1C67.42,117.44,66.27,116.14,65.17,114.88z"/>
<path id="path8312" fill="#F9AE0B" d="M263.13,108.94c10.31-4.24,21.59-5.61,32.67-4.9c0.37,8.54,0.27,17.11-0.54,25.62
	c-2.05-0.45-4.15-0.89-6.25-0.55c-5.36,0.66-10.78,1.25-15.92,2.98c-4.39,1.34-8.35,3.75-12.64,5.34
	C261.7,127.97,262.62,118.46,263.13,108.94z"/>
<path id="path8314" fill="#F9AE0B" d="M319.58,113.47c9.439-3.99,21.66,1.12,25.22,10.8c3.53,9.1,1.38,19.16-1.75,28.04
	c-8.1-8.01-17.12-15.76-28.2-19.19c-3.75-1.23-7.56-2.29-11.32-3.48C307.34,123.02,312.32,116.48,319.58,113.47z"/>
<path id="path8316" fill="#56B831" d="M47.39,142.98c5.56-9.59,11.43-19.01,17.78-28.1c1.1,1.26,2.25,2.56,3.9,3.08
	c12.05,4.86,23.96,10.04,35.92,15.1c1.62,0.73,3.05,1.8,4.48,2.83c-1.51,4.63-4.33,9.25-3.75,14.26c2.57,0.75,3.34-2.78,4.77-4.25
	c2,1.26,4.04,2.47,6.23,3.38c10.77,4.43,21.32,9.39,32.22,13.51c0.74-0.6,1.48-1.2,2.21-1.8c-0.85,8.24-3.98,16.03-8.08,23.17
	c-20.08-8.73-40.21-17.38-60.42-25.81C70.97,153.07,58.95,148.54,47.39,142.98z"/>
<path id="path8318" fill="#FABD09" d="M273.09,132.09c5.14-1.73,10.56-2.32,15.92-2.98c2.1-0.34,4.2,0.1,6.25,0.55
	c0.19,2.72-1.75,7.46,1.68,8.66c3.6-1.51,4.75-5.58,6.589-8.68c3.761,1.19,7.57,2.25,11.32,3.48c11.08,3.43,20.101,11.18,28.2,19.19
	c-0.31,1.9,0.67,3.28,2.48,3.8c5.42,8.48,9.95,17.81,11.27,27.89c0.51,5.21,0.34,10.46,0.57,15.69
	c-11.36,4.89-21.97,12.9-27.43,24.27c-2.141,4.31-3.46,9-4.131,13.76c-5.979,2.14-11.06,6.261-17.239,7.9
	c-7.22,1.819-14.791,3.319-22.23,1.95c-5.58-1.051-11.23-2.18-16.39-4.601c-7.6-3.95-14.81-9.04-19.86-16.07
	c-3.06-3.57-4.61-8.16-7.88-11.54c8.64-25.29,14.66-51.46,18.24-77.93C264.74,135.84,268.7,133.43,273.09,132.09z"/>
<path id="path8320" fill="#4EB332" d="M110.49,145.9c4.68-5.98,11.62-10.96,19.49-10.89c6.67,0.01,13.89,2.53,17.81,8.22
	c3.55,5.13,4.04,11.72,3.36,17.76c-0.73,0.6-1.47,1.2-2.21,1.8c-10.9-4.12-21.45-9.08-32.22-13.51
	C114.53,148.37,112.49,147.16,110.49,145.9z"/>
<path id="path8322" fill="#60BF30" d="M23.81,191.43c6.72-16.67,14.61-32.87,23.58-48.45c11.56,5.56,23.58,10.09,35.26,15.37
	c20.21,8.43,40.34,17.08,60.42,25.81c-1.5,3.96,2.01,6.75,4.94,8.61c28.78,19.57,51.41,46.86,69.67,76.21
	c1.21,1.97,2.37,3.959,3.57,5.939c-5.66-1.21-10.83-3.84-16.12-6.08c-45.76-19.58-91.45-39.3-137.28-58.7
	C53.13,204,38.63,197.34,23.81,191.43z"/>
<path id="path8324" fill="#F9AA0C" d="M345.53,156.11c16.06-0.85,32.17-0.65,48.2,0.61c3.1,11,5.75,22.15,6.319,33.61
	c-14.569,0.92-29.229,3.5-42.68,9.36c-0.23-5.23-0.061-10.48-0.57-15.69C355.48,173.92,350.95,164.59,345.53,156.11z"/>
<path id="path8326" fill="#F79B0F" d="M393.73,156.72c6.85,0.51,13.68,1.2,20.479,2.12c2.59,10.28,4.6,20.78,4.94,31.4
	c-6.37-0.22-12.74-0.31-19.101,0.09C399.48,178.87,396.83,167.72,393.73,156.72z"/>
<path id="path8328" fill="#F79310" d="M414.21,158.84c6.64,0.91,13.25,1.97,19.83,3.26c-1.64,3.98,0.37,8.06,0.72,12.08
	c0.58,5.82,1.67,11.64,1.21,17.52c-5.58-0.77-11.2-1.21-16.819-1.46C418.81,179.62,416.8,169.12,414.21,158.84z"/>
<path id="path8330" fill="#F58413" d="M434.76,174.18c-0.35-4.02-2.359-8.1-0.72-12.08c14.07,2.75,27.97,6.51,41.34,11.73
	c2.17,1.42,4.44,2.68,6.73,3.91c-0.79,4.78,0.81,9.47,0.819,14.24c0.12,4.11-0.199,8.23-1.14,12.24
	c-14.62-6.22-30.07-10.439-45.82-12.52C436.43,185.82,435.34,180,434.76,174.18z"/>
<path id="path8332" fill="#FBCA06" d="M289.28,167.3c7.28-1.3,14.611,1.93,20.52,5.99c5.16,4.79,9.42,11.42,9.3,18.69
	c0.42,6.51-1.3,13.37-5.56,18.42c-5.01,6.58-13.38,10.14-21.58,9.76c-7.66,0.41-14.77-3.97-19.78-9.45
	c-3.48-4.9-5.74-10.66-6.22-16.67c0.68-5.05,1.58-10.3,4.45-14.63c1.83-2.47,4.13-4.55,6.35-6.67
	C280.18,169.56,284.85,168.33,289.28,167.3z"/>
<path id="path8334" fill="#3993CF" d="M475.38,173.83c9.11,2.88,17.65,7.27,26.021,11.82c-1.811-0.31-3.83-0.58-4.94,1.23
	c-4.68-3.22-9.44-6.3-14.35-9.14C479.82,176.51,477.55,175.25,475.38,173.83z"/>
<path id="path8336" fill="#F47416" d="M482.11,177.74c4.909,2.84,9.67,5.92,14.35,9.14c1.26,0.89,2.53,1.81,3.771,2.75
	c-0.681,7.57,0.67,15.32-1.58,22.72c-5.46-3.02-11.12-5.68-16.86-8.13c0.94-4.01,1.26-8.13,1.14-12.24
	C482.92,187.21,481.32,182.52,482.11,177.74z"/>
<path id="path8338" fill="#3C9BD4" d="M496.46,186.88c1.11-1.81,3.13-1.54,4.94-1.23c9.439,5.25,18.369,11.37,26.909,17.98
	c-2.109,1.74-4.1,3.61-5.96,5.61c-2.859-2.93-5.79-5.8-8.79-8.57c-4.26-3.91-8.68-7.63-13.329-11.04
	C498.99,188.69,497.72,187.77,496.46,186.88z"/>
<path id="path8340" fill="#FFFFFF" d="M357.37,199.69c13.45-5.86,28.11-8.44,42.68-9.36c6.36-0.4,12.73-0.31,19.101-0.09
	c5.619,0.25,11.239,0.69,16.819,1.46c15.75,2.08,31.2,6.3,45.82,12.52c5.74,2.45,11.4,5.11,16.86,8.13
	c4.159,2.23,8.239,4.62,12.159,7.25c4.82,3.28,9.551,6.71,13.91,10.59c4.7,4.07,9.021,8.56,12.931,13.39
	c10.229,12.99,17.319,29.93,14.46,46.67c-0.641,2.99-1.66,5.96-3.78,8.26c-4.18-0.13-6.97-3.47-10.35-5.42
	c-4.74-2.85-10.551-4.43-16.011-2.99c-5.529,1.221-9.79,5.521-12.63,10.221c-3.899,6.43-4.32,14.229-3.92,21.55
	c0.7,10.94,2.44,21.95,0.9,32.89c-0.19,1.5-0.4,3-0.62,4.5c-10.931,0.131-21.88-1.01-32.61-3.039
	c-13.39-2.49-26.57-6.07-39.37-10.73c-14.95-5.311-29.42-11.93-43.22-19.74c-9.22-5.27-17.99-11.279-26.27-17.9
	c-3.931-3.199-7.7-6.59-11.29-10.149c-10.07-9.97-18.87-21.591-23.881-34.95c-2.979-7.95-4.39-16.57-3.25-25.03
	c0.671-4.76,1.99-9.45,4.131-13.76C335.4,212.59,346.01,204.58,357.37,199.69z"/>
<path id="path8342" fill="#F36B17" d="M500.23,189.63c4.649,3.41,9.069,7.13,13.329,11.04c-0.77,4.08-1.569,8.19-1.489,12.37
	c0.08,2.26-0.38,4.48-1.261,6.56c-3.92-2.63-8-5.02-12.159-7.25C500.9,204.95,499.55,197.2,500.23,189.63z"/>
<path id="path8344" fill="#51AE2E" d="M12.76,223.07c3.16-10.72,6.91-21.26,11.05-31.64c14.82,5.91,29.32,12.57,44.04,18.71
	c45.83,19.4,91.52,39.12,137.28,58.7c5.29,2.24,10.46,4.87,16.12,6.08c5.13,8.38,10.24,16.78,15.22,25.27
	c5.34,9.101,10.76,18.16,16.35,27.121c0.31,0.469,0.93,1.42,1.24,1.89c-27.08-11.771-54.37-23.05-81.46-34.771
	c-1.04-0.16-2.07-0.05-3.1,0.32c-13.61-11.77-29.79-24.1-48.87-22.33c1.4-0.25,2.77-0.58,4.15-0.91
	c-28.82-12.33-57.63-24.689-86.5-36.9C29.82,230.67,20.82,227.81,12.76,223.07z"/>
<path id="path8346" fill="#F36219" d="M513.56,200.67c3,2.77,5.931,5.64,8.79,8.57c1.37,1.44,2.71,2.91,4.021,4.41
	c-0.37,5.53-1.36,11-1.65,16.54c-4.359-3.88-9.09-7.31-13.91-10.59c0.881-2.08,1.341-4.3,1.261-6.56
	C511.99,208.86,512.79,204.75,513.56,200.67z"/>
<path id="path8348" fill="#40A6DD" d="M522.35,209.24c1.86-2,3.851-3.87,5.96-5.61c32.4,25.6,59.051,59.979,70.94,99.89
	c-0.65,21.67-13.11,41.711-29.61,55.15c-17.68,14.04-41.399,20.33-63.71,16.49c-1.79-0.18-3.29-1.189-4.71-2.2
	c1.811-3.92,3.261-8.01,4.2-12.22c0.07-0.37,0.21-1.11,0.28-1.48c0.22-1.5,0.43-3,0.62-4.5c12.79,2.84,26.42,1.16,38.38-4.08
	c14.2-6.66,25.87-18.789,31.5-33.49c4.2-9.76,4.29-20.569,3.479-30.979c-2.13-14.61-9.6-28.37-20.97-37.83
	c-4.37-3.33-8.65-7.46-14.31-8.29c-1.131-2.24-2.36-4.42-3.631-6.57c-4.13-7.08-9.079-13.64-14.399-19.87
	C525.06,212.15,523.72,210.68,522.35,209.24z"/>
<path id="path8350" fill="#F2571A" d="M526.37,213.65c5.32,6.23,10.27,12.79,14.399,19.87c-2.119,2.94-1.92,6.75-3.119,10.06
	c-3.91-4.83-8.23-9.32-12.931-13.39C525.01,224.65,526,219.18,526.37,213.65z"/>
<path id="path8352" fill="#F9B30B" d="M242.21,215.36c3.27,3.38,4.82,7.97,7.88,11.54c5.05,7.03,12.26,12.12,19.86,16.07
	c5.16,2.421,10.81,3.55,16.39,4.601c7.44,1.369,15.01-0.131,22.23-1.95c6.18-1.64,11.26-5.761,17.239-7.9
	c-1.14,8.46,0.271,17.08,3.25,25.03c-9.97,3.99-20.18,7.99-31.05,8.35c-6.34,0.051-12.78,0.461-19-1.09
	c-18.65-3.05-35.49-13.89-47.4-28.359C235.63,233.09,239.13,224.29,242.21,215.36z"/>
<path id="path8354" fill="#43A02D" d="M4.71,256.83c2.02-11.4,4.8-22.65,8.05-33.76c8.06,4.74,17.06,7.6,25.52,11.54
	c28.87,12.21,57.68,24.57,86.5,36.9c-1.38,0.33-2.75,0.66-4.15,0.91c-6.58,0.87-13.21,2.08-19.31,4.811
	c-7.14,3.149-13.45,8.039-18.62,13.859c-1.17-0.79-2.32-1.619-3.58-2.25C54.36,278.08,29.43,267.689,4.71,256.83z"/>
<path id="path8356" fill="#F14C1C" d="M537.65,243.58c1.199-3.311,1-7.12,3.119-10.06c1.271,2.15,2.5,4.33,3.631,6.57
	c7.739,15.311,11.699,33.19,7.71,50.16C554.97,273.51,547.88,256.57,537.65,243.58z"/>
<path id="path8358" fill="#44B0E4" d="M544.4,240.09c5.659,0.83,9.939,4.96,14.31,8.29c11.37,9.46,18.84,23.22,20.97,37.83
	c0.811,10.41,0.721,21.22-3.479,30.979c-5.63,14.701-17.3,26.83-31.5,33.49c-11.96,5.24-25.59,6.92-38.38,4.08
	c1.54-10.939-0.2-21.949-0.9-32.89c7.45,3.21,16.21,4.8,23.9,1.42c9.52-3.38,17.22-11.761,19.29-21.7c0.21-1.04-0.16-2.07-0.28-3.08
	c2.12-2.3,3.14-5.27,3.78-8.26C556.1,273.28,552.14,255.4,544.4,240.09z"/>
<path id="path8360" fill="#F8A30D" d="M217.68,268.98c5.02-8.91,9.65-18.051,13.93-27.33c11.91,14.47,28.75,25.31,47.4,28.359
	c6.22,1.551,12.66,1.141,19,1.09c10.87-0.359,21.08-4.359,31.05-8.35c5.011,13.359,13.811,24.98,23.881,34.95
	c-4.95,1.92-9.48,4.75-14.36,6.819c-12.39,5.33-25.8,7.891-39.2,8.851c-6.49,1.43-12.97-0.37-19.46-0.591
	c-8.14-0.469-16.02-2.77-23.83-4.949c-6.79-1.891-12.94-5.46-19.62-7.641c-4.98-8.489-10.09-16.89-15.22-25.27
	C220.05,272.939,218.89,270.95,217.68,268.98z"/>
<path id="path8362" fill="#35922C" d="M1.74,277.82c0.68-7.04,1.79-14.021,2.97-20.99c24.72,10.859,49.65,21.25,74.41,32.01
	c1.26,0.631,2.41,1.46,3.58,2.25c-6.16,6.96-10.66,15.23-13.87,23.91c-2.17-2.83-5.77-3.561-8.85-4.939
	c-18.47-7.86-36.89-15.871-55.36-23.73C1.06,285.17,2.35,280.66,1.74,277.82z"/>
<path id="path8364" fill="#FFFFFF" d="M101.32,277.23c6.1-2.73,12.73-3.94,19.31-4.811c19.08-1.77,35.26,10.561,48.87,22.33
	c7.22,6.23,14.06,12.88,21.03,19.38c-8.92,13.32-18.42,26.25-28.81,38.47c-6.85,8.03-14.08,15.771-21.95,22.84
	c-9.01,8.16-18.97,15.601-30.38,20.041c-9.14,3.47-20.1,4.1-28.73-1.061c-5.35-3.1-8.74-8.48-11.69-13.72
	c-0.16-0.4-0.47-1.181-0.63-1.58c-2.8-7.399-4.38-15.21-5.11-23.07c-0.46-5.95-0.47-11.96,0.28-17.88
	c0.79-7.91,2.55-15.72,5.32-23.17c3.21-8.68,7.71-16.95,13.87-23.91C87.87,285.27,94.18,280.38,101.32,277.23z"/>
<path id="path8366" fill="#2A872B" d="M0.11,307.71c-0.16-9.989,0.59-19.96,1.63-29.89c0.61,2.84-0.68,7.35,2.88,8.51
	c18.47,7.859,36.89,15.87,55.36,23.73c3.08,1.379,6.68,2.109,8.85,4.939c-2.77,7.45-4.53,15.26-5.32,23.17
	c-0.33-2.22-0.99-4.59-3.46-5.15C40,324.75,20.29,315.641,0.11,307.71z"/>
<path id="path8368" fill="#4ABEEE" d="M509.34,300.32c2.84-4.7,7.101-9,12.63-10.221c5.46-1.439,11.271,0.141,16.011,2.99
	c3.38,1.95,6.17,5.29,10.35,5.42c0.12,1.01,0.49,2.04,0.28,3.08c-2.07,9.939-9.771,18.32-19.29,21.7
	c-7.69,3.38-16.45,1.79-23.9-1.42C505.02,314.55,505.44,306.75,509.34,300.32z"/>
<path id="path8370" fill="#43A12D" d="M169.5,294.75c1.03-0.37,2.06-0.48,3.1-0.32c27.09,11.721,54.38,23,81.46,34.771
	c9.02,14.329,18.87,28.21,30.19,40.84c-4.16-0.94-7.99-2.83-11.85-4.56c-9.8-4.15-19.56-8.42-29.38-12.541
	c-5.06-2.049-9.86-4.89-15.33-5.739c-8.98-7.101-17.18-15.15-26.04-22.37c-3.72-3.551-7.35-7.2-11.12-10.7
	C183.56,307.63,176.72,300.98,169.5,294.75z"/>
<path id="path8372" fill="#F79710" d="M338.58,304.52c4.88-2.069,9.41-4.899,14.36-6.819c3.59,3.56,7.359,6.95,11.29,10.149
	c-9.73,6.48-20.54,11.131-31.641,14.69c-2.8,0.899-6.09,0.97-8.18,3.3c-12.98-5.65-27.29-8.79-41.47-7.3
	c-10.5,0.94-20.62,4.319-30.12,8.771c-5.59-8.961-11.01-18.021-16.35-27.121c6.68,2.181,12.83,5.75,19.62,7.641
	c7.81,2.18,15.69,4.48,23.83,4.949c6.49,0.221,12.97,2.021,19.46,0.591C312.78,312.41,326.19,309.85,338.58,304.52z"/>
<path id="path8374" fill="#3C9AD4" d="M599.25,303.52c7.12,23.74,7.9,49.521,1.19,73.44c-3.841,2.22-7.04,5.29-10.45,8.08
	c-13.37,10.3-28.87,17.979-45.4,21.58c-8.32,2.53-17.06,1.979-25.57,3.2c-6.59-1.12-13.34-0.67-19.88-2.141
	c-7.12-1.41-14.569-2.68-20.81-6.58c9.57-7.529,17.63-17.119,22.89-28.14c1.42,1.011,2.92,2.021,4.71,2.2
	c22.311,3.84,46.03-2.45,63.71-16.49C586.14,345.23,598.6,325.189,599.25,303.52z"/>
<path id="path8376" fill="#207E2B" d="M0.11,307.71c20.18,7.931,39.89,17.04,59.94,25.31c2.47,0.561,3.13,2.931,3.46,5.15
	c-0.75,5.92-0.74,11.93-0.28,17.88c-0.15,0.38-0.47,1.15-0.62,1.53c-20.25-8.01-39.92-17.48-60.24-25.311
	c-0.14,0.44-0.43,1.32-0.57,1.75C0.7,325.3,0.07,316.51,0.11,307.71z"/>
<path id="path8378" fill="#F68C11" d="M332.59,322.54c11.101-3.56,21.91-8.21,31.641-14.69c8.279,6.621,17.05,12.631,26.27,17.9
	c-6.59,5.641-14.33,9.689-21.84,13.939c-3.75,2.131-8.021,3.36-11.37,6.16c-10.24-7.76-21.07-14.879-32.88-20.01
	C326.5,323.51,329.79,323.439,332.59,322.54z"/>
<path id="path8380" fill="#F57C14" d="M190.53,314.13c3.77,3.5,7.4,7.149,11.12,10.7c6.88,7.35,14.07,14.391,20.96,21.73
	c-11.23,8.149-21.5,17.51-32.02,26.529c-2.39-1.9-4.83-3.76-7.47-5.3c-7.59-4.39-14.43-9.91-21.4-15.19
	C172.11,340.38,181.61,327.45,190.53,314.13z"/>
<path id="path8382" fill="#FFFFFF" d="M252.82,327.311c9.5-4.451,19.62-7.83,30.12-8.771c14.18-1.49,28.49,1.649,41.47,7.3
	c11.81,5.131,22.64,12.25,32.88,20.01c12.04,9.33,23.19,19.74,34.1,30.351c8.561,8.42,16.92,17.03,25.17,25.74
	c5.511,5.869,10.99,11.76,16.32,17.81c-3.02,0.38-6.02,0.85-9.04,1.22c-9,1.021-18.04,1.3-27.09,1.04
	c-10.24-0.49-20.46-1.5-30.57-3.2c-1.67-0.26-3.33-0.54-4.979-0.84c-22.53-5.239-43.55-16.33-60.74-31.79
	c-5.72-5.06-11.15-10.43-16.21-16.14c-11.32-12.63-21.17-26.511-30.19-40.84C253.75,328.73,253.13,327.779,252.82,327.311z"/>
<path id="path8384" fill="#2157A3" d="M201.65,324.83c8.86,7.22,17.06,15.27,26.04,22.37c19.79,16.97,40.8,32.62,63.32,45.78
	c7.7,4.5,15.76,8.34,24.01,11.729c0.48,1.53,0.921,3.1,1.721,4.51c7.54,12.511,15.479,24.87,25.08,35.92
	c2.05,2.23,4.479,4.261,5.439,7.25c-33.42-16.51-62.91-40.229-88.13-67.55c-12.16-12.77-24.37-25.5-36.52-38.279
	C215.72,339.221,208.53,332.18,201.65,324.83z"/>
<path id="path8386" fill="#F57A15" d="M390.5,325.75c13.8,7.811,28.27,14.43,43.22,19.74c-12.439,12.3-27.2,22.039-42.33,30.71
	c-10.909-10.61-22.06-21.021-34.1-30.351c3.35-2.8,7.62-4.029,11.37-6.16C376.17,335.439,383.91,331.391,390.5,325.75z"/>
<path id="path8388" fill="#18752A" d="M2.37,332.27c20.32,7.83,39.99,17.301,60.24,25.311c0.15-0.38,0.47-1.15,0.62-1.53
	c0.73,7.86,2.31,15.671,5.11,23.07c-5.52-0.899-10.31-3.99-15.5-5.88c-16-6.59-31.85-13.551-47.73-20.4
	c-1.44-6.21-2.56-12.49-3.31-18.82C1.94,333.59,2.23,332.71,2.37,332.27z"/>
<path id="path8390" fill="#F36319" d="M433.72,345.49c12.8,4.66,25.98,8.24,39.37,10.73c-4.04,1.279-5.79,5.449-8.81,8.069
	c-12.12,11.33-24.74,22.229-38.67,31.33c-3.11,1.97-6.45,3.66-9.051,6.32c-8.25-8.71-16.609-17.32-25.17-25.74
	C406.52,367.529,421.28,357.79,433.72,345.49z"/>
<path id="path8392" fill="#39972C" d="M227.69,347.2c5.47,0.85,10.27,3.69,15.33,5.739c9.82,4.121,19.58,8.391,29.38,12.541
	c3.86,1.729,7.69,3.619,11.85,4.56c5.06,5.71,10.49,11.08,16.21,16.14c17.19,15.46,38.21,26.551,60.74,31.79
	c-15.811-2.7-31.26-7.39-46.181-13.26c-8.25-3.39-16.31-7.229-24.01-11.729C268.49,379.82,247.48,364.17,227.69,347.2z"/>
<path id="path8394" fill="#0A6729" d="M5.11,352.84c15.88,6.85,31.73,13.811,47.73,20.4c5.19,1.89,9.98,4.98,15.5,5.88
	c0.16,0.399,0.47,1.18,0.63,1.58c4.67,12.25,13.89,23.03,25.95,28.46c10.54,4.81,22.59,5.43,33.9,3.479
	c6.32-0.85,12.29-3.13,18.44-4.689C125.74,422.64,98.8,430,72.85,426.27c-18.48-2.649-35.89-12.38-47.48-27.06
	C14.41,385.99,9.09,369.27,5.11,352.84z"/>
<path id="path8396" fill="#F36618" d="M139.77,375.439c7.87-7.069,15.1-14.81,21.95-22.84c6.97,5.28,13.81,10.801,21.4,15.19
	c2.64,1.54,5.08,3.399,7.47,5.3c-8.31,7.08-16.46,14.35-25.05,21.1C156.69,388.3,148.13,382,139.77,375.439z"/>
<path id="path8398" fill="#F14E1C" d="M464.28,364.29c3.02-2.62,4.77-6.79,8.81-8.069c10.73,2.029,21.68,3.17,32.61,3.039
	c-0.07,0.37-0.21,1.11-0.28,1.48c-1.92-0.82-4.01-0.381-5.17,1.43c-13.25,16.689-28.84,31.42-45.68,44.44
	c-5.19,4.109-11.15,7.239-15.801,12.01c-1.949,0.439-3.909,0.84-5.89,1.13c-5.33-6.05-10.81-11.94-16.32-17.81
	c2.601-2.66,5.94-4.351,9.051-6.32C439.54,386.52,452.16,375.62,464.28,364.29z"/>
<path id="path8400" fill="#F0421E" d="M500.25,362.17c1.16-1.811,3.25-2.25,5.17-1.43c-0.939,4.21-2.39,8.3-4.2,12.22
	c-5.26,11.021-13.319,20.61-22.89,28.14c-8.88,6.801-19.13,11.66-29.8,14.95c-3.221,0.98-6.48,1.84-9.761,2.57
	c4.65-4.771,10.61-7.9,15.801-12.01C471.41,393.59,487,378.859,500.25,362.17z"/>
<path id="path8402" fill="#F14E1C" d="M109.39,395.48c11.41-4.44,21.37-11.881,30.38-20.041c8.36,6.561,16.92,12.86,25.77,18.75
	c-5.97,4.751-12.06,9.351-18.28,13.761c-6.15,1.56-12.12,3.84-18.44,4.689C122.71,406.5,115,402.12,109.39,395.48z"/>
<path id="path8404" fill="#368DCA" d="M589.99,385.04c3.41-2.79,6.609-5.86,10.45-8.08c-5.04,18.13-14.48,34.97-27.07,48.95
	c-5.58,1.359-10.87,3.649-16.43,5.06c-12.341,3.36-25.101,5.66-37.931,5c-10.09,0.521-20.149-0.939-29.979-3.09
	c-8.58-1.77-17.021-4.31-24.99-7.939c-5.42-2.431-11.49-4.261-15.51-8.891c10.67-3.29,20.92-8.149,29.8-14.95
	c6.24,3.9,13.689,5.17,20.81,6.58c6.54,1.471,13.29,1.021,19.88,2.141c8.511-1.221,17.25-0.67,25.57-3.2
	C561.12,403.02,576.62,395.34,589.99,385.04z"/>
<path id="path8406" fill="#F03C1F" d="M68.97,380.7c2.95,5.239,6.34,10.62,11.69,13.72c8.63,5.16,19.59,4.53,28.73,1.061
	c5.61,6.64,13.32,11.02,19.43,17.159c-11.31,1.95-23.36,1.33-33.9-3.479C82.86,403.73,73.64,392.95,68.97,380.7z"/>
<path id="path8408" fill="#2766AE" d="M315.02,404.71c14.921,5.87,30.37,10.56,46.181,13.26c1.649,0.3,3.31,0.58,4.979,0.84
	c-0.51,0.141-1.51,0.4-2.01,0.53c1.96,3.72,5.24,6.391,7.92,9.54c4.09,5.21,8.86,9.88,14.021,14.03
	c15.47,13.89,33.05,25.399,51.949,34.04l-1.819,0.22c-30.95-1.96-61.3-10.93-88.98-24.78c-0.96-2.989-3.39-5.02-5.439-7.25
	c-9.601-11.05-17.54-23.409-25.08-35.92C315.94,407.81,315.5,406.24,315.02,404.71z"/>
<path id="path8410" fill="#3282C3" d="M438.77,418.62c3.28-0.73,6.54-1.59,9.761-2.57c4.02,4.63,10.09,6.46,15.51,8.891
	c7.97,3.63,16.41,6.17,24.99,7.939c9.83,2.15,19.89,3.61,29.979,3.09c12.83,0.66,25.59-1.64,37.931-5
	c5.56-1.41,10.85-3.7,16.43-5.06c-10.32,11.39-22.44,21.16-35.78,28.79c-2.84-0.931-5.75-0.19-8.6,0.16
	c-37.42,2.09-75.74-9.08-105.58-31.91c0.109-0.49,0.32-1.49,0.43-1.98c3.021-0.37,6.021-0.84,9.04-1.22
	C434.86,419.46,436.82,419.06,438.77,418.62z"/>
<path id="path8412" fill="#2B71B6" d="M364.17,419.34c0.5-0.13,1.5-0.39,2.01-0.53c10.11,1.7,20.33,2.71,30.57,3.2
	c-0.06,0.46-0.19,1.391-0.25,1.851c15.03,15.71,34.28,26.659,53.87,35.71c6.49,2.77,13.27,4.779,19.96,7.01
	c7.99,2.54,16.47,3.03,24.43,5.62c-9.58,2.37-19.33,4.33-29.2,4.89c-3.54-0.22-7.079-0.02-10.609,0.25
	c-5.641,0.45-11.25-0.479-16.891-0.39c-18.899-8.641-36.479-20.15-51.949-34.04c-5.16-4.15-9.931-8.82-14.021-14.03
	C369.41,425.73,366.13,423.06,364.17,419.34z"/>
<path id="path8414" fill="#2F7ABD" d="M396.75,422.01c9.05,0.26,18.09-0.02,27.09-1.04c-0.109,0.49-0.32,1.49-0.43,1.98
	c29.84,22.83,68.16,34,105.58,31.91c2.85-0.351,5.76-1.091,8.6-0.16c-13.359,7.83-27.87,13.58-42.83,17.5
	c-7.96-2.59-16.439-3.08-24.43-5.62c-6.69-2.23-13.47-4.24-19.96-7.01c-19.59-9.051-38.84-20-53.87-35.71
	C396.56,423.4,396.69,422.47,396.75,422.01z"/>
<path id="path8416" fill="#8888A8" d="M436.24,477.17l1.819-0.22c5.641-0.09,11.25,0.84,16.891,0.39
	c3.53-0.27,7.069-0.47,10.609-0.25l-1.85,0.91H437.23L436.24,477.17z"/>
<g id="layer1" inkscape:label="Layer 1" inkscape:groupmode="layer">
	<path id="path8290-4" inkscape:connector-curvature="0" fill="#FFFFFF" d="M-0.398-0.261h606v478h-142.29l1.85-0.91
		c9.87-0.561,19.62-2.521,29.2-4.891c14.96-3.92,29.471-9.67,42.83-17.5c13.34-7.63,25.46-17.399,35.78-28.79
		c12.59-13.979,22.03-30.819,27.07-48.949c6.71-23.92,5.93-49.7-1.19-73.44c-11.89-39.91-38.54-74.29-70.94-99.89
		c-8.54-6.61-17.47-12.73-26.909-17.98c-8.37-4.55-16.91-8.94-26.021-11.82c-13.37-5.22-27.27-8.98-41.34-11.73
		c-6.58-1.29-13.19-2.35-19.83-3.26c-6.8-0.92-13.63-1.61-20.479-2.12c-16.03-1.26-32.141-1.46-48.2-0.61
		c-1.811-0.52-2.79-1.9-2.48-3.8c3.13-8.88,5.28-18.94,1.75-28.04c-3.56-9.68-15.78-14.79-25.22-10.8
		c-7.26,3.01-12.24,9.55-16.05,16.17c-1.84,3.1-2.99,7.17-6.59,8.68c-3.43-1.2-1.49-5.94-1.68-8.66c0.81-8.51,0.91-17.08,0.54-25.62
		c-0.5-11.04-1.78-22.05-3.91-32.89c-3.15-15.87-7.96-31.65-16.32-45.6c-3.16-5.02-6.79-9.84-11.33-13.7
		c-10.58-8.73-24.78-11.73-38.23-11.2c-19.06,0.81-37.6,6.87-54.4,15.72c-10.54,5.36-20.5,11.83-30.09,18.74
		c-7.32,5.29-14.37,10.95-21.11,16.97c-5.82,5.15-11.46,10.5-16.89,16.06c-7.7,7.92-15,16.21-21.94,24.8
		c-5.76,7.09-11.17,14.46-16.41,21.94c-6.35,9.09-12.22,18.51-17.78,28.1c-8.97,15.58-16.86,31.78-23.58,48.45
		c-4.14,10.38-7.89,20.92-11.05,31.64c-3.25,11.11-6.03,22.36-8.05,33.759c-1.18,6.971-2.29,13.951-2.97,20.99
		c-1.04,9.93-1.79,19.9-1.63,29.891c-0.04,8.8,0.59,17.59,1.69,26.31c0.75,6.33,1.87,12.61,3.31,18.82
		c3.98,16.43,9.3,33.149,20.26,46.37c11.59,14.68,29,24.41,47.48,27.06c25.95,3.73,52.89-3.63,74.41-18.32
		c6.22-4.409,12.31-9.01,18.28-13.76c8.59-6.75,16.74-14.021,25.05-21.1c10.52-9.021,20.79-18.38,32.02-26.53
		c12.15,12.78,24.36,25.51,36.52,38.28c25.22,27.319,54.71,51.04,88.13,67.55c27.681,13.85,58.03,22.82,88.98,24.78l0.99,0.83
		H-0.398V-0.261L-0.398-0.261z"/>
	<linearGradient id="path8292-2_1_" gradientUnits="userSpaceOnUse" x1="119.9336" y1="440.2002" x2="324.3145" y2="49.9475">
		<stop  offset="0" style="stop-color:#0B8237"/>
		<stop  offset="0.5" style="stop-color:#60BF30"/>
		<stop  offset="1" style="stop-color:#0B8237"/>
	</linearGradient>
	<path id="path8292-2" fill="url(#path8292-2_1_)" d="M228.141,0.331c-0.845,0.005-1.689,0.025-2.53,0.058
		c-19.06,0.81-37.6,6.87-54.4,15.72c-10.54,5.36-20.499,11.829-30.089,18.739c-7.32,5.29-14.371,10.95-21.111,16.97
		c-5.82,5.15-11.459,10.501-16.889,16.061c-7.7,7.92-15.001,16.21-21.941,24.8c-5.76,7.09-11.169,14.459-16.409,21.939
		c-6.35,9.09-12.22,18.51-17.78,28.1c-8.97,15.58-16.861,31.78-23.581,48.45c-4.14,10.38-7.89,20.92-11.05,31.641
		c-3.25,11.11-6.03,22.359-8.05,33.759c-1.18,6.971-2.289,13.951-2.969,20.991c-1.04,9.93-1.792,19.899-1.631,29.889
		c-0.04,8.8,0.591,17.591,1.69,26.312c0.75,6.33,1.87,12.609,3.31,18.82c3.98,16.43,9.301,33.148,20.261,46.368
		c11.59,14.681,29,24.411,47.48,27.062c25.95,3.729,52.889-3.631,74.409-18.32c-6.15,1.56-12.119,3.84-18.439,4.69
		c-11.31,1.95-23.36,1.328-33.9-3.481c-12.06-5.43-21.28-16.209-25.95-28.459c-0.16-0.4-0.47-1.18-0.629-1.58
		c-2.8-7.4-4.381-15.211-5.111-23.07c-0.46-5.95-0.47-11.959,0.28-17.88c0.79-7.909,2.55-15.72,5.32-23.17
		c3.21-8.681,7.71-16.95,13.871-23.909c5.17-5.82,11.48-10.711,18.62-13.861c6.1-2.73,12.729-3.939,19.31-4.81
		c19.08-1.77,35.26,10.56,48.87,22.33c7.22,6.229,14.06,12.88,21.03,19.38c3.77,3.5,7.4,7.149,11.12,10.699
		c8.86,7.221,17.061,15.271,26.041,22.371c19.79,16.97,40.799,32.619,63.319,45.779c7.7,4.5,15.761,8.34,24.011,11.729
		c14.92,5.87,30.369,10.562,46.18,13.261c-22.53-5.239-43.551-16.33-60.741-31.79c-5.72-5.06-11.149-10.429-16.209-16.14
		c-11.32-12.629-21.17-26.51-30.19-40.84c-0.31-0.471-0.929-1.421-1.239-1.891c-5.59-8.961-11.01-18.02-16.35-27.119
		c-4.98-8.49-10.09-16.891-15.22-25.271c-1.2-1.979-2.36-3.971-3.57-5.94c-18.26-29.35-40.89-56.64-69.67-76.209
		c-2.93-1.86-6.439-4.651-4.939-8.611c4.1-7.14,7.229-14.929,8.08-23.169c0.68-6.04,0.191-12.631-3.359-17.761
		c-3.92-5.69-11.141-8.21-17.811-8.22c-7.87-0.07-14.809,4.911-19.489,10.891c-1.43,1.47-2.2,5-4.771,4.25
		c-0.58-5.01,2.24-9.629,3.75-14.259c3.36-8.76,7.389-17.24,11.739-25.55c4.86-9.17,10.33-18.021,16.27-26.541
		c4.1-5.9,8.51-11.589,13.1-17.109c5.71-6.88,11.821-13.431,18.411-19.481c1.6-1.55,3.319-2.979,5.019-4.409
		c5.51-6.39,12.691-11.109,19.361-16.209c13.77-9.41,28.529-19.28,45.639-20.6c8.82-0.91,17.501,1.79,25.231,5.859
		C253.923,3.405,240.822,0.256,228.141,0.331z"/>
	<radialGradient id="path8294-3_1_" cx="310.9287" cy="212.521" r="242.1928" gradientUnits="userSpaceOnUse">
		<stop  offset="0" style="stop-color:#FBCA06"/>
		<stop  offset="1" style="stop-color:#F36618"/>
	</radialGradient>
	<path id="path8294-3" fill="url(#path8294-3_1_)" d="M241.911,5.553c-1.097,0.005-2.198,0.063-3.3,0.176
		c-17.11,1.32-31.869,11.19-45.639,20.6c-6.67,5.1-13.851,9.819-19.361,16.209c10.25-7.79,20.66-15.911,33.05-19.991
		c9.84-3.49,20.82-3.99,30.77-0.68c4.79,1.68,8.691,5.16,11.791,9.1c9.11,12.68,11.68,28.65,13.15,43.83
		c0.94,11.27,0.959,22.591,0.359,33.881c-0.51,9.52-1.43,19.029-2.68,28.489c-3.58,26.47-9.601,52.64-18.241,77.93
		c-3.08,8.93-6.58,17.73-10.6,26.29c-4.28,9.28-8.91,18.42-13.93,27.33c1.21,1.97,2.37,3.961,3.57,5.94
		c5.13,8.38,10.24,16.78,15.22,25.271c5.34,9.1,10.76,18.158,16.35,27.119c9.5-4.45,19.62-7.829,30.12-8.77
		c14.18-1.49,28.489,1.65,41.469,7.301c11.811,5.129,22.642,12.249,32.882,20.009c12.04,9.33,23.189,19.74,34.1,30.351
		c8.56,8.42,16.919,17.03,25.169,25.74c5.51,5.87,10.99,11.76,16.32,17.81c1.979-0.29,3.94-0.689,5.891-1.13
		c3.28-0.73,6.539-1.59,9.759-2.57c10.67-3.29,20.92-8.15,29.801-14.95c9.569-7.53,17.63-17.12,22.891-28.141
		c1.81-3.92,3.26-8.009,4.199-12.219l0.28-1.481c-10.931,0.131-21.88-1.009-32.609-3.039c-13.391-2.49-26.57-6.069-39.37-10.729
		c-14.95-5.31-29.421-11.931-43.221-19.74c-9.22-5.271-17.99-11.28-26.271-17.9c-3.93-3.2-7.699-6.59-11.289-10.149
		c-10.069-9.971-18.871-21.59-23.881-34.95c-2.98-7.95-4.391-16.569-3.25-25.03c0.67-4.76,1.991-9.451,4.131-13.761
		c5.46-11.37,16.07-19.378,27.43-24.269c13.45-5.86,28.11-8.441,42.68-9.361c6.36-0.4,12.73-0.309,19.101-0.089
		c5.619,0.25,11.24,0.689,16.82,1.459c15.75,2.08,31.2,6.3,45.82,12.521c5.739,2.45,11.399,5.11,16.859,8.129
		c4.159,2.23,8.239,4.62,12.159,7.25c4.819,3.28,9.551,6.711,13.911,10.591c4.699,4.07,9.02,8.559,12.93,13.389
		c10.229,12.99,17.319,29.931,14.459,46.671c3.99-16.97,0.03-34.85-7.709-50.159c-1.131-2.24-2.36-4.421-3.63-6.571
		c-4.13-7.08-9.08-13.64-14.4-19.87c-1.31-1.5-2.65-2.969-4.021-4.41c-2.859-2.93-5.79-5.8-8.79-8.57
		c-4.26-3.91-8.68-7.63-13.33-11.041c-1.24-0.94-2.51-1.86-3.771-2.75c-4.68-3.22-9.439-6.299-14.35-9.139
		c-2.29-1.23-4.56-2.491-6.729-3.911c-13.37-5.22-27.27-8.98-41.339-11.73c-6.58-1.29-13.191-2.349-19.832-3.259
		c-6.8-0.92-13.629-1.61-20.479-2.12c-16.03-1.26-32.14-1.461-48.2-0.611c-1.81-0.52-2.789-1.9-2.479-3.8
		c3.13-8.88,5.28-18.939,1.75-28.039c-3.56-9.68-15.78-14.79-25.22-10.8c-7.261,3.01-12.24,9.55-16.05,16.17
		c-1.84,3.1-2.989,7.169-6.589,8.68c-3.43-1.2-1.491-5.941-1.681-8.661c0.81-8.51,0.911-17.079,0.541-25.619
		c-0.5-11.04-1.779-22.051-3.909-32.891c-3.15-15.87-7.96-31.65-16.32-45.6c-3.16-5.02-6.79-9.84-11.33-13.7
		C257.079,8.028,249.587,5.516,241.911,5.553z M190.131,313.869c-8.92,13.32-18.419,26.25-28.81,38.47
		c-6.85,8.03-14.08,15.771-21.95,22.841c-9.01,8.16-18.97,15.6-30.38,20.039c-9.14,3.47-20.101,4.101-28.731-1.06
		c-5.35-3.1-8.739-8.479-11.689-13.72c4.67,12.25,13.89,23.029,25.95,28.459c10.54,4.81,22.59,5.432,33.9,3.481
		c6.32-0.851,12.289-3.131,18.439-4.69c6.22-4.41,12.312-9.01,18.281-13.76c8.59-6.75,16.74-14.02,25.05-21.1
		c10.52-9.021,20.789-18.382,32.019-26.531c-6.89-7.34-14.08-14.38-20.959-21.73C197.532,321.019,193.901,317.369,190.131,313.869z"
		/>
	<path id="path8298-2" inkscape:connector-curvature="0" fill="#FFFFFF" d="M206.662,22.549c9.84-3.49,20.82-3.99,30.77-0.68
		c4.79,1.68,8.69,5.16,11.79,9.1c9.11,12.68,11.68,28.65,13.15,43.83c0.94,11.27,0.96,22.59,0.36,33.88
		c-0.51,9.521-1.43,19.03-2.68,28.49c-3.58,26.47-9.6,52.64-18.24,77.93c-3.08,8.93-6.58,17.73-10.6,26.29
		c-4.28,9.28-8.91,18.42-13.93,27.33c-18.26-29.35-40.89-56.64-69.67-76.21c-2.93-1.86-6.44-4.65-4.94-8.61
		c4.1-7.14,7.23-14.93,8.08-23.17c0.68-6.04,0.19-12.63-3.36-17.76c-3.92-5.69-11.14-8.21-17.81-8.22
		c-7.87-0.07-14.81,4.91-19.49,10.89c-1.43,1.47-2.2,5-4.77,4.25c-0.58-5.01,2.24-9.63,3.75-14.26c3.36-8.76,7.39-17.24,11.74-25.55
		c4.86-9.17,10.33-18.02,16.27-26.54c4.1-5.9,8.51-11.59,13.1-17.11c5.71-6.88,11.82-13.43,18.41-19.479
		c1.6-1.55,3.32-2.98,5.02-4.41C183.861,34.749,194.271,26.629,206.662,22.549z"/>
	<radialGradient id="path8334-7_1_" cx="539.9551" cy="374.3857" r="284.7818" gradientUnits="userSpaceOnUse">
		<stop  offset="0" style="stop-color:#4ABEEE"/>
		<stop  offset="1" style="stop-color:#2157A3"/>
	</radialGradient>
	<path id="path8334-7" fill="url(#path8334-7_1_)" d="M474.981,173.569c2.17,1.42,4.439,2.681,6.729,3.911
		c4.91,2.84,9.67,5.919,14.35,9.139c1.261,0.89,2.53,1.81,3.771,2.75c4.65,3.41,9.07,7.131,13.33,11.041
		c3,2.77,5.931,5.641,8.79,8.57c1.37,1.44,2.711,2.91,4.021,4.41c5.32,6.23,10.271,12.79,14.4,19.87
		c1.27,2.15,2.499,4.331,3.63,6.571c7.739,15.31,11.699,33.189,7.709,50.159c-0.64,2.989-1.66,5.959-3.779,8.259
		c-4.181-0.129-6.971-3.469-10.351-5.418c-4.74-2.851-10.549-4.432-16.009-2.991c-5.53,1.22-9.79,5.521-12.63,10.221
		c-3.9,6.43-4.32,14.229-3.921,21.55c0.7,10.939,2.44,21.949,0.9,32.889c-0.19,1.5-0.4,3-0.62,4.5l-0.28,1.481
		c-0.939,4.21-2.39,8.299-4.199,12.219c-5.261,11.021-13.321,20.61-22.891,28.141c-8.881,6.8-19.131,11.66-29.801,14.95
		c-3.22,0.98-6.479,1.84-9.759,2.57c-1.95,0.44-3.911,0.84-5.891,1.13c-3.021,0.38-6.02,0.851-9.039,1.22
		c-9,1.021-18.041,1.3-27.091,1.039c-10.24-0.489-20.46-1.5-30.57-3.199c-1.67-0.261-3.33-0.539-4.979-0.84
		c-15.811-2.699-31.26-7.391-46.18-13.261c-8.25-3.39-16.311-7.229-24.011-11.729c-22.52-13.16-43.529-28.81-63.319-45.779
		c-8.98-7.101-17.181-15.15-26.041-22.371c6.88,7.351,14.069,14.391,20.959,21.73c12.15,12.779,24.36,25.511,36.521,38.281
		c25.22,27.319,54.71,51.04,88.13,67.55c27.68,13.85,58.031,22.819,88.98,24.779l1.819-0.22c5.64-0.091,11.25,0.84,16.891,0.391
		c3.53-0.271,7.069-0.471,10.609-0.25c9.87-0.561,19.62-2.521,29.2-4.891c14.96-3.92,29.471-9.67,42.831-17.5
		c13.34-7.631,25.46-17.401,35.779-28.791c12.59-13.98,22.03-30.82,27.07-48.95c6.71-23.92,5.93-49.698-1.19-73.438
		c-11.89-39.91-38.541-74.291-70.94-99.891c-8.54-6.61-17.47-12.729-26.909-17.979C492.632,180.839,484.091,176.449,474.981,173.569
		z"/>
	<path id="path8340-1" inkscape:connector-curvature="0" fill="#FFFFFF" d="M356.972,199.429c13.45-5.86,28.11-8.44,42.68-9.36
		c6.36-0.4,12.73-0.31,19.101-0.09c5.619,0.25,11.239,0.69,16.819,1.46c15.75,2.08,31.2,6.3,45.82,12.52
		c5.74,2.45,11.4,5.11,16.86,8.13c4.159,2.23,8.239,4.62,12.159,7.25c4.82,3.28,9.551,6.71,13.91,10.59
		c4.7,4.07,9.021,8.561,12.931,13.39c10.229,12.99,17.319,29.931,14.46,46.67c-0.641,2.99-1.66,5.961-3.78,8.261
		c-4.18-0.13-6.97-3.47-10.35-5.42c-4.74-2.851-10.551-4.431-16.011-2.99c-5.529,1.22-9.79,5.521-12.63,10.22
		c-3.899,6.43-4.32,14.23-3.92,21.551c0.7,10.939,2.44,21.949,0.9,32.89c-0.19,1.5-0.4,3-0.62,4.5
		c-10.931,0.13-21.88-1.011-32.61-3.04c-13.39-2.49-26.57-6.07-39.37-10.73c-14.95-5.31-29.42-11.93-43.22-19.74
		c-9.22-5.27-17.99-11.279-26.27-17.899c-3.931-3.2-7.7-6.59-11.29-10.149c-10.07-9.971-18.87-21.59-23.881-34.951
		c-2.979-7.949-4.39-16.569-3.25-25.029c0.671-4.76,1.99-9.45,4.131-13.76C335.002,212.329,345.611,204.319,356.972,199.429z"/>
	<path id="path8364-8" inkscape:connector-curvature="0" fill="#FFFFFF" d="M100.921,276.969c6.1-2.73,12.73-3.939,19.31-4.81
		c19.08-1.771,35.26,10.56,48.87,22.329c7.22,6.23,14.06,12.881,21.03,19.381c-8.92,13.32-18.42,26.25-28.81,38.47
		c-6.85,8.03-14.08,15.771-21.95,22.84c-9.01,8.16-18.97,15.601-30.38,20.04c-9.14,3.471-20.1,4.101-28.73-1.06
		c-5.35-3.101-8.74-8.48-11.69-13.72c-0.16-0.4-0.47-1.181-0.63-1.58c-2.8-7.4-4.38-15.211-5.11-23.07
		c-0.46-5.95-0.47-11.96,0.28-17.88c0.79-7.91,2.55-15.72,5.32-23.171c3.21-8.68,7.71-16.949,13.87-23.909
		C87.472,285.009,93.782,280.119,100.921,276.969z"/>
	<path id="path8382-1" inkscape:connector-curvature="0" fill="#FFFFFF" d="M252.421,327.049c9.5-4.449,19.62-7.83,30.12-8.77
		c14.18-1.49,28.49,1.65,41.47,7.3c11.81,5.13,22.64,12.25,32.88,20.01c12.04,9.33,23.19,19.74,34.1,30.351
		c8.561,8.42,16.921,17.029,25.171,25.739c5.51,5.87,10.989,11.761,16.319,17.811c-3.02,0.38-6.02,0.85-9.04,1.22
		c-9,1.02-18.04,1.3-27.09,1.04c-10.24-0.49-20.46-1.5-30.57-3.2c-1.67-0.26-3.33-0.54-4.979-0.84
		c-22.53-5.24-43.55-16.33-60.74-31.79c-5.72-5.06-11.15-10.431-16.21-16.14c-11.32-12.631-21.17-26.51-30.19-40.84
		C253.352,328.469,252.731,327.52,252.421,327.049L252.421,327.049z"/>
	<path id="path8416-4" inkscape:connector-curvature="0" fill="#8888A8" d="M435.842,476.909l1.819-0.22
		c5.641-0.091,11.25,0.84,16.891,0.39c3.53-0.271,7.069-0.47,10.609-0.25l-1.85,0.91h-26.479L435.842,476.909L435.842,476.909z"/>
</g>
</svg>
