<?xml version="1.0" encoding="UTF-8" standalone="no"?>
<svg
   xmlns:dc="http://purl.org/dc/elements/1.1/"
   xmlns:cc="http://creativecommons.org/ns#"
   xmlns:rdf="http://www.w3.org/1999/02/22-rdf-syntax-ns#"
   xmlns:svg="http://www.w3.org/2000/svg"
   xmlns="http://www.w3.org/2000/svg"
   xmlns:sodipodi="http://sodipodi.sourceforge.net/DTD/sodipodi-0.dtd"
   xmlns:inkscape="http://www.inkscape.org/namespaces/inkscape"
   width="606pt"
   height="478pt"
   viewBox="0 0 606 478"
   version="1.1"
   id="svg8288"
   inkscape:version="0.91 r13725"
   sodipodi:docname="logo2016.svg">
  <metadata
     id="metadata8422">
    <rdf:RDF>
      <cc:Work
         rdf:about="">
        <dc:format>image/svg+xml</dc:format>
        <dc:type
           rdf:resource="http://purl.org/dc/dcmitype/StillImage" />
        <dc:title></dc:title>
      </cc:Work>
    </rdf:RDF>
  </metadata>
  <defs
     id="defs8420" />
  <sodipodi:namedview
     pagecolor="#ffffff"
     bordercolor="#666666"
     borderopacity="1"
     objecttolerance="10"
     gridtolerance="10"
     guidetolerance="10"
     inkscape:pageopacity="0"
     inkscape:pageshadow="2"
     inkscape:window-width="1360"
     inkscape:window-height="706"
     id="namedview8418"
     showgrid="false"
     inkscape:zoom="0.78995816"
     inkscape:cx="400.2606"
     inkscape:cy="275.95737"
     inkscape:window-x="-8"
     inkscape:window-y="-8"
     inkscape:window-maximized="1"
     inkscape:current-layer="svg8288" />
  <path
     fill="#0b8237"
     d=" M 171.61 16.37 C 188.41 7.52 206.95 1.46 226.01 0.65 C 239.46 0.12 253.66 3.12 264.24 11.85 C 256.51 7.78 247.83 5.08 239.01 5.99 C 221.90 7.31 207.14 17.18 193.37 26.59 C 186.27 22.87 178.17 21.02 171.61 16.37 Z"
     id="path8292" />
  <path
     fill="#f57b14"
     d=" M 193.37 26.59 C 207.14 17.18 221.90 7.31 239.01 5.99 C 247.83 5.08 256.51 7.78 264.24 11.85 C 268.78 15.71 272.41 20.53 275.57 25.55 C 267.02 27.94 257.91 27.79 249.62 31.23 C 246.52 27.29 242.62 23.81 237.83 22.13 C 227.88 18.82 216.90 19.32 207.06 22.81 C 194.67 26.89 184.26 35.01 174.01 42.80 C 179.52 36.41 186.70 31.69 193.37 26.59 Z"
     id="path8294" />
  <path
     fill="#198c36"
     d=" M 141.52 35.11 C 151.11 28.20 161.07 21.73 171.61 16.37 C 178.17 21.02 186.27 22.87 193.37 26.59 C 186.70 31.69 179.52 36.41 174.01 42.80 C 172.31 44.23 170.59 45.66 168.99 47.21 C 162.95 45.58 157.47 42.47 151.66 40.20 C 148.20 38.69 144.48 37.57 141.52 35.11 Z"
     id="path8296" />
  <path
     fill="#f68e11"
     d=" M 249.62 31.23 C 257.91 27.79 267.02 27.94 275.57 25.55 C 283.93 39.50 288.74 55.28 291.89 71.15 C 287.61 72.08 283.21 71.90 278.90 72.59 C 273.52 73.36 268.17 74.35 262.77 75.06 C 261.30 59.88 258.73 43.91 249.62 31.23 Z"
     id="path8300" />
  <path
     fill="#259535"
     d=" M 120.41 52.08 C 127.15 46.06 134.20 40.40 141.52 35.11 C 144.48 37.57 148.20 38.69 151.66 40.20 C 157.47 42.47 162.95 45.58 168.99 47.21 C 162.40 53.26 156.29 59.81 150.58 66.69 C 147.48 63.20 142.63 62.50 138.62 60.49 C 132.58 57.61 126.05 55.74 120.41 52.08 Z"
     id="path8302" />
  <path
     fill="#2f9c34"
     d=" M 103.52 68.14 C 108.95 62.58 114.59 57.23 120.41 52.08 C 126.05 55.74 132.58 57.61 138.62 60.49 C 142.63 62.50 147.48 63.20 150.58 66.69 C 145.99 72.21 141.58 77.90 137.48 83.80 C 126.60 77.67 114.29 74.43 103.52 68.14 Z"
     id="path8304" />
  <path
     fill="#3ba533"
     d=" M 81.58 92.94 C 88.52 84.35 95.82 76.06 103.52 68.14 C 114.29 74.43 126.60 77.67 137.48 83.80 C 131.54 92.32 126.07 101.17 121.21 110.34 C 113.42 107.51 105.94 103.92 98.28 100.76 C 92.71 98.18 86.73 96.39 81.58 92.94 Z"
     id="path8306" />
  <path
     fill="#f8a00e"
     d=" M 291.89 71.15 C 294.02 81.99 295.30 93.00 295.80 104.04 C 284.72 103.33 273.44 104.70 263.13 108.94 C 263.73 97.65 263.71 86.33 262.77 75.06 C 268.17 74.35 273.52 73.36 278.90 72.59 C 283.21 71.90 287.61 72.08 291.89 71.15 Z"
     id="path8308" />
  <path
     fill="#48ae32"
     d=" M 65.17 114.88 C 70.41 107.40 75.82 100.03 81.58 92.94 C 86.73 96.39 92.71 98.18 98.28 100.76 C 105.94 103.92 113.42 107.51 121.21 110.34 C 116.86 118.65 112.83 127.13 109.47 135.89 C 108.04 134.86 106.61 133.79 104.99 133.06 C 93.03 128.00 81.12 122.82 69.07 117.96 C 67.42 117.44 66.27 116.14 65.17 114.88 Z"
     id="path8310" />
  <path
     fill="#f9ae0b"
     d=" M 263.13 108.94 C 273.44 104.70 284.72 103.33 295.80 104.04 C 296.17 112.58 296.07 121.15 295.26 129.66 C 293.21 129.21 291.11 128.77 289.01 129.11 C 283.65 129.77 278.23 130.36 273.09 132.09 C 268.70 133.43 264.74 135.84 260.45 137.43 C 261.70 127.97 262.62 118.46 263.13 108.94 Z"
     id="path8312" />
  <path
     fill="#f9ae0b"
     d=" M 319.58 113.47 C 329.02 109.48 341.24 114.59 344.80 124.27 C 348.33 133.37 346.18 143.43 343.05 152.31 C 334.95 144.30 325.93 136.55 314.85 133.12 C 311.10 131.89 307.29 130.83 303.53 129.64 C 307.34 123.02 312.32 116.48 319.58 113.47 Z"
     id="path8314" />
  <path
     fill="#56b831"
     d=" M 47.39 142.98 C 52.95 133.39 58.82 123.97 65.17 114.88 C 66.27 116.14 67.42 117.44 69.07 117.96 C 81.12 122.82 93.03 128.00 104.99 133.06 C 106.61 133.79 108.04 134.86 109.47 135.89 C 107.96 140.52 105.14 145.14 105.72 150.15 C 108.29 150.90 109.06 147.37 110.49 145.90 C 112.49 147.16 114.53 148.37 116.72 149.28 C 127.49 153.71 138.04 158.67 148.94 162.79 C 149.68 162.19 150.42 161.59 151.15 160.99 C 150.30 169.23 147.17 177.02 143.07 184.16 C 122.99 175.43 102.86 166.78 82.65 158.35 C 70.97 153.07 58.95 148.54 47.39 142.98 Z"
     id="path8316" />
  <path
     fill="#fabd09"
     d=" M 273.09 132.09 C 278.23 130.36 283.65 129.77 289.01 129.11 C 291.11 128.77 293.21 129.21 295.26 129.66 C 295.45 132.38 293.51 137.12 296.94 138.32 C 300.54 136.81 301.69 132.74 303.53 129.64 C 307.29 130.83 311.10 131.89 314.85 133.12 C 325.93 136.55 334.95 144.30 343.05 152.31 C 342.74 154.21 343.72 155.59 345.53 156.11 C 350.95 164.59 355.48 173.92 356.80 184.00 C 357.31 189.21 357.14 194.46 357.37 199.69 C 346.01 204.58 335.40 212.59 329.94 223.96 C 327.80 228.27 326.48 232.96 325.81 237.72 C 319.83 239.86 314.75 243.98 308.57 245.62 C 301.35 247.44 293.78 248.94 286.34 247.57 C 280.76 246.52 275.11 245.39 269.95 242.97 C 262.35 239.02 255.14 233.93 250.09 226.90 C 247.03 223.33 245.48 218.74 242.21 215.36 C 250.85 190.07 256.87 163.90 260.45 137.43 C 264.74 135.84 268.70 133.43 273.09 132.09 Z"
     id="path8318" />
  <path
     fill="#4eb332"
     d=" M 110.49 145.90 C 115.17 139.92 122.11 134.94 129.98 135.01 C 136.65 135.02 143.87 137.54 147.79 143.23 C 151.34 148.36 151.83 154.95 151.15 160.99 C 150.42 161.59 149.68 162.19 148.94 162.79 C 138.04 158.67 127.49 153.71 116.72 149.28 C 114.53 148.37 112.49 147.16 110.49 145.90 Z"
     id="path8320" />
  <path
     fill="#60bf30"
     d=" M 23.81 191.43 C 30.53 174.76 38.42 158.56 47.39 142.98 C 58.95 148.54 70.97 153.07 82.65 158.35 C 102.86 166.78 122.99 175.43 143.07 184.16 C 141.57 188.12 145.08 190.91 148.01 192.77 C 176.79 212.34 199.42 239.63 217.68 268.98 C 218.89 270.95 220.05 272.94 221.25 274.92 C 215.59 273.71 210.42 271.08 205.13 268.84 C 159.37 249.26 113.68 229.54 67.85 210.14 C 53.13 204.00 38.63 197.34 23.81 191.43 Z"
     id="path8322" />
  <path
     fill="#f9aa0c"
     d=" M 345.53 156.11 C 361.59 155.26 377.70 155.46 393.73 156.72 C 396.83 167.72 399.48 178.87 400.05 190.33 C 385.48 191.25 370.82 193.83 357.37 199.69 C 357.14 194.46 357.31 189.21 356.80 184.00 C 355.48 173.92 350.95 164.59 345.53 156.11 Z"
     id="path8324" />
  <path
     fill="#f79b0f"
     d=" M 393.73 156.72 C 400.58 157.23 407.41 157.92 414.21 158.84 C 416.80 169.12 418.81 179.62 419.15 190.24 C 412.78 190.02 406.41 189.93 400.05 190.33 C 399.48 178.87 396.83 167.72 393.73 156.72 Z"
     id="path8326" />
  <path
     fill="#f79310"
     d=" M 414.21 158.84 C 420.85 159.75 427.46 160.81 434.04 162.10 C 432.40 166.08 434.41 170.16 434.76 174.18 C 435.34 180.00 436.43 185.82 435.97 191.70 C 430.39 190.93 424.77 190.49 419.15 190.24 C 418.81 179.62 416.80 169.12 414.21 158.84 Z"
     id="path8328" />
  <path
     fill="#f58413"
     d=" M 434.76 174.18 C 434.41 170.16 432.40 166.08 434.04 162.10 C 448.11 164.85 462.01 168.61 475.38 173.83 C 477.55 175.25 479.82 176.51 482.11 177.74 C 481.32 182.52 482.92 187.21 482.93 191.98 C 483.05 196.09 482.73 200.21 481.79 204.22 C 467.17 198.00 451.72 193.78 435.97 191.70 C 436.43 185.82 435.34 180.00 434.76 174.18 Z"
     id="path8330" />
  <path
     fill="#fbca06"
     d=" M 289.28 167.30 C 296.56 166.00 303.89 169.23 309.80 173.29 C 314.96 178.08 319.22 184.71 319.10 191.98 C 319.52 198.49 317.80 205.35 313.54 210.40 C 308.53 216.98 300.16 220.54 291.96 220.16 C 284.30 220.57 277.19 216.19 272.18 210.71 C 268.70 205.81 266.44 200.05 265.96 194.04 C 266.64 188.99 267.54 183.74 270.41 179.41 C 272.24 176.94 274.54 174.86 276.76 172.74 C 280.18 169.56 284.85 168.33 289.28 167.30 Z"
     id="path8332" />
  <path
     fill="#3993cf"
     d=" M 475.38 173.83 C 484.49 176.71 493.03 181.10 501.40 185.65 C 499.59 185.34 497.57 185.07 496.46 186.88 C 491.78 183.66 487.02 180.58 482.11 177.74 C 479.82 176.51 477.55 175.25 475.38 173.83 Z"
     id="path8334" />
  <path
     fill="#f47416"
     d=" M 482.11 177.74 C 487.02 180.58 491.78 183.66 496.46 186.88 C 497.72 187.77 498.99 188.69 500.23 189.63 C 499.55 197.20 500.90 204.95 498.65 212.35 C 493.19 209.33 487.53 206.67 481.79 204.22 C 482.73 200.21 483.05 196.09 482.93 191.98 C 482.92 187.21 481.32 182.52 482.11 177.74 Z"
     id="path8336" />
  <path
     fill="#3c9bd4"
     d=" M 496.46 186.88 C 497.57 185.07 499.59 185.34 501.40 185.65 C 510.84 190.90 519.77 197.02 528.31 203.63 C 526.20 205.37 524.21 207.24 522.35 209.24 C 519.49 206.31 516.56 203.44 513.56 200.67 C 509.30 196.76 504.88 193.04 500.23 189.63 C 498.99 188.69 497.72 187.77 496.46 186.88 Z"
     id="path8338" />
  <path
     fill="#f36b17"
     d=" M 500.23 189.63 C 504.88 193.04 509.30 196.76 513.56 200.67 C 512.79 204.75 511.99 208.86 512.07 213.04 C 512.15 215.30 511.69 217.52 510.81 219.60 C 506.89 216.97 502.81 214.58 498.65 212.35 C 500.90 204.95 499.55 197.20 500.23 189.63 Z"
     id="path8342" />
  <path
     fill="#51ae2e"
     d=" M 12.76 223.07 C 15.92 212.35 19.67 201.81 23.81 191.43 C 38.63 197.34 53.13 204.00 67.85 210.14 C 113.68 229.54 159.37 249.26 205.13 268.84 C 210.42 271.08 215.59 273.71 221.25 274.92 C 226.38 283.30 231.49 291.70 236.47 300.19 C 241.81 309.29 247.23 318.35 252.82 327.31 C 253.13 327.78 253.75 328.73 254.06 329.20 C 226.98 317.43 199.69 306.15 172.60 294.43 C 171.56 294.27 170.53 294.38 169.50 294.75 C 155.89 282.98 139.71 270.65 120.63 272.42 C 122.03 272.17 123.40 271.84 124.78 271.51 C 95.96 259.18 67.15 246.82 38.28 234.61 C 29.82 230.67 20.82 227.81 12.76 223.07 Z"
     id="path8344" />
  <path
     fill="#f36219"
     d=" M 513.56 200.67 C 516.56 203.44 519.49 206.31 522.35 209.24 C 523.72 210.68 525.06 212.15 526.37 213.65 C 526.00 219.18 525.01 224.65 524.72 230.19 C 520.36 226.31 515.63 222.88 510.81 219.60 C 511.69 217.52 512.15 215.30 512.07 213.04 C 511.99 208.86 512.79 204.75 513.56 200.67 Z"
     id="path8346" />
  <path
     fill="#40a6dd"
     d=" M 522.35 209.24 C 524.21 207.24 526.20 205.37 528.31 203.63 C 560.71 229.23 587.36 263.61 599.25 303.52 C 598.60 325.19 586.14 345.23 569.64 358.67 C 551.96 372.71 528.24 379.00 505.93 375.16 C 504.14 374.98 502.64 373.97 501.22 372.96 C 503.03 369.04 504.48 364.95 505.42 360.74 C 505.49 360.37 505.63 359.63 505.70 359.26 C 505.92 357.76 506.13 356.26 506.32 354.76 C 519.11 357.60 532.74 355.92 544.70 350.68 C 558.90 344.02 570.57 331.89 576.20 317.19 C 580.40 307.43 580.49 296.62 579.68 286.21 C 577.55 271.60 570.08 257.84 558.71 248.38 C 554.34 245.05 550.06 240.92 544.40 240.09 C 543.27 237.85 542.04 235.67 540.77 233.52 C 536.64 226.44 531.69 219.88 526.37 213.65 C 525.06 212.15 523.72 210.68 522.35 209.24 Z"
     id="path8348" />
  <path
     fill="#f2571a"
     d=" M 526.37 213.65 C 531.69 219.88 536.64 226.44 540.77 233.52 C 538.65 236.46 538.85 240.27 537.65 243.58 C 533.74 238.75 529.42 234.26 524.72 230.19 C 525.01 224.65 526.00 219.18 526.37 213.65 Z"
     id="path8350" />
  <path
     fill="#f9b30b"
     d=" M 242.21 215.36 C 245.48 218.74 247.03 223.33 250.09 226.90 C 255.14 233.93 262.35 239.02 269.95 242.97 C 275.11 245.39 280.76 246.52 286.34 247.57 C 293.78 248.94 301.35 247.44 308.57 245.62 C 314.75 243.98 319.83 239.86 325.81 237.72 C 324.67 246.18 326.08 254.80 329.06 262.75 C 319.09 266.74 308.88 270.74 298.01 271.10 C 291.67 271.15 285.23 271.56 279.01 270.01 C 260.36 266.96 243.52 256.12 231.61 241.65 C 235.63 233.09 239.13 224.29 242.21 215.36 Z"
     id="path8352" />
  <path
     fill="#43a02d"
     d=" M 4.71 256.83 C 6.73 245.43 9.51 234.18 12.76 223.07 C 20.82 227.81 29.82 230.67 38.28 234.61 C 67.15 246.82 95.96 259.18 124.78 271.51 C 123.40 271.84 122.03 272.17 120.63 272.42 C 114.05 273.29 107.42 274.50 101.32 277.23 C 94.18 280.38 87.87 285.27 82.70 291.09 C 81.53 290.30 80.38 289.47 79.12 288.84 C 54.36 278.08 29.43 267.69 4.71 256.83 Z"
     id="path8354" />
  <path
     fill="#f14c1c"
     d=" M 537.65 243.58 C 538.85 240.27 538.65 236.46 540.77 233.52 C 542.04 235.67 543.27 237.85 544.40 240.09 C 552.14 255.40 556.10 273.28 552.11 290.25 C 554.97 273.51 547.88 256.57 537.65 243.58 Z"
     id="path8356" />
  <path
     fill="#44b0e4"
     d=" M 544.40 240.09 C 550.06 240.92 554.34 245.05 558.71 248.38 C 570.08 257.84 577.55 271.60 579.68 286.21 C 580.49 296.62 580.40 307.43 576.20 317.19 C 570.57 331.89 558.90 344.02 544.70 350.68 C 532.74 355.92 519.11 357.60 506.32 354.76 C 507.86 343.82 506.12 332.81 505.42 321.87 C 512.87 325.08 521.63 326.67 529.32 323.29 C 538.84 319.91 546.54 311.53 548.61 301.59 C 548.82 300.55 548.45 299.52 548.33 298.51 C 550.45 296.21 551.47 293.24 552.11 290.25 C 556.10 273.28 552.14 255.40 544.40 240.09 Z"
     id="path8358" />
  <path
     fill="#f8a30d"
     d=" M 217.68 268.98 C 222.70 260.07 227.33 250.93 231.61 241.65 C 243.52 256.12 260.36 266.96 279.01 270.01 C 285.23 271.56 291.67 271.15 298.01 271.10 C 308.88 270.74 319.09 266.74 329.06 262.75 C 334.07 276.11 342.87 287.73 352.94 297.70 C 347.99 299.62 343.46 302.45 338.58 304.52 C 326.19 309.85 312.78 312.41 299.38 313.37 C 292.89 314.80 286.41 313.00 279.92 312.78 C 271.78 312.31 263.90 310.01 256.09 307.83 C 249.30 305.94 243.15 302.37 236.47 300.19 C 231.49 291.70 226.38 283.30 221.25 274.92 C 220.05 272.94 218.89 270.95 217.68 268.98 Z"
     id="path8360" />
  <path
     fill="#35922c"
     d=" M 1.74 277.82 C 2.42 270.78 3.53 263.80 4.71 256.83 C 29.43 267.69 54.36 278.08 79.12 288.84 C 80.38 289.47 81.53 290.30 82.70 291.09 C 76.54 298.05 72.04 306.32 68.83 315.00 C 66.66 312.17 63.06 311.44 59.98 310.06 C 41.51 302.20 23.09 294.19 4.62 286.33 C 1.06 285.17 2.35 280.66 1.74 277.82 Z"
     id="path8362" />
  <path
     fill="#2a872b"
     d=" M 0.11 307.71 C -0.05 297.72 0.70 287.75 1.74 277.82 C 2.35 280.66 1.06 285.17 4.62 286.33 C 23.09 294.19 41.51 302.20 59.98 310.06 C 63.06 311.44 66.66 312.17 68.83 315.00 C 66.06 322.45 64.30 330.26 63.51 338.17 C 63.18 335.95 62.52 333.58 60.05 333.02 C 40.00 324.75 20.29 315.64 0.11 307.71 Z"
     id="path8366" />
  <path
     d=" M 509.34 300.32 C 512.18 295.62 516.44 291.32 521.97 290.10 C 527.43 288.66 533.24 290.24 537.98 293.09 C 541.36 295.04 544.15 298.38 548.33 298.51 C 548.45 299.52 548.82 300.55 548.61 301.59 C 546.54 311.53 538.84 319.91 529.32 323.29 C 521.63 326.67 512.87 325.08 505.42 321.87 C 505.02 314.55 505.44 306.75 509.34 300.32 Z"
     id="path8368"
     fill="#4abeee" />
  <path
     fill="#43a12d"
     d=" M 169.50 294.75 C 170.53 294.38 171.56 294.27 172.60 294.43 C 199.69 306.15 226.98 317.43 254.06 329.20 C 263.08 343.53 272.93 357.41 284.25 370.04 C 280.09 369.10 276.26 367.21 272.40 365.48 C 262.60 361.33 252.84 357.06 243.02 352.94 C 237.96 350.89 233.16 348.05 227.69 347.20 C 218.71 340.10 210.51 332.05 201.65 324.83 C 197.93 321.28 194.30 317.63 190.53 314.13 C 183.56 307.63 176.72 300.98 169.50 294.75 Z"
     id="path8370" />
  <path
     fill="#f79710"
     d=" M 338.58 304.52 C 343.46 302.45 347.99 299.62 352.94 297.70 C 356.53 301.26 360.30 304.65 364.23 307.85 C 354.50 314.33 343.69 318.98 332.59 322.54 C 329.79 323.44 326.50 323.51 324.41 325.84 C 311.43 320.19 297.12 317.05 282.94 318.54 C 272.44 319.48 262.32 322.86 252.82 327.31 C 247.23 318.35 241.81 309.29 236.47 300.19 C 243.15 302.37 249.30 305.94 256.09 307.83 C 263.90 310.01 271.78 312.31 279.92 312.78 C 286.41 313.00 292.89 314.80 299.38 313.37 C 312.78 312.41 326.19 309.85 338.58 304.52 Z"
     id="path8372" />
  <path
     fill="#3c9ad4"
     d=" M 599.25 303.52 C 606.37 327.26 607.15 353.04 600.44 376.96 C 596.60 379.18 593.40 382.25 589.99 385.04 C 576.62 395.34 561.12 403.02 544.59 406.62 C 536.27 409.15 527.53 408.60 519.02 409.82 C 512.43 408.70 505.68 409.15 499.14 407.68 C 492.02 406.27 484.57 405.00 478.33 401.10 C 487.90 393.57 495.96 383.98 501.22 372.96 C 502.64 373.97 504.14 374.98 505.93 375.16 C 528.24 379.00 551.96 372.71 569.64 358.67 C 586.14 345.23 598.60 325.19 599.25 303.52 Z"
     id="path8374" />
  <path
     fill="#207e2b"
     d=" M 0.11 307.71 C 20.29 315.64 40.00 324.75 60.05 333.02 C 62.52 333.58 63.18 335.95 63.51 338.17 C 62.76 344.09 62.77 350.10 63.23 356.05 C 63.08 356.43 62.76 357.20 62.61 357.58 C 42.36 349.57 22.69 340.10 2.37 332.27 C 2.23 332.71 1.94 333.59 1.80 334.02 C 0.70 325.30 0.07 316.51 0.11 307.71 Z"
     id="path8376" />
  <path
     fill="#f68c11"
     d=" M 332.59 322.54 C 343.69 318.98 354.50 314.33 364.23 307.85 C 372.51 314.47 381.28 320.48 390.50 325.75 C 383.91 331.39 376.17 335.44 368.66 339.69 C 364.91 341.82 360.64 343.05 357.29 345.85 C 347.05 338.09 336.22 330.97 324.41 325.84 C 326.50 323.51 329.79 323.44 332.59 322.54 Z"
     id="path8378" />
  <path
     fill="#f57c14"
     d=" M 190.53 314.13 C 194.30 317.63 197.93 321.28 201.65 324.83 C 208.53 332.18 215.72 339.22 222.61 346.56 C 211.38 354.71 201.11 364.07 190.59 373.09 C 188.20 371.19 185.76 369.33 183.12 367.79 C 175.53 363.40 168.69 357.88 161.72 352.60 C 172.11 340.38 181.61 327.45 190.53 314.13 Z"
     id="path8380" />
  <path
     fill="#2157a3"
     d=" M 201.65 324.83 C 210.51 332.05 218.71 340.10 227.69 347.20 C 247.48 364.17 268.49 379.82 291.01 392.98 C 298.71 397.48 306.77 401.32 315.02 404.71 C 315.50 406.24 315.94 407.81 316.74 409.22 C 324.28 421.73 332.22 434.09 341.82 445.14 C 343.87 447.37 346.30 449.40 347.26 452.39 C 313.84 435.88 284.35 412.16 259.13 384.84 C 246.97 372.07 234.76 359.34 222.61 346.56 C 215.72 339.22 208.53 332.18 201.65 324.83 Z"
     id="path8384" />
  <path
     fill="#f57a15"
     d=" M 390.50 325.75 C 404.30 333.56 418.77 340.18 433.72 345.49 C 421.28 357.79 406.52 367.53 391.39 376.20 C 380.48 365.59 369.33 355.18 357.29 345.85 C 360.64 343.05 364.91 341.82 368.66 339.69 C 376.17 335.44 383.91 331.39 390.50 325.75 Z"
     id="path8386" />
  <path
     fill="#18752a"
     d=" M 2.37 332.27 C 22.69 340.10 42.36 349.57 62.61 357.58 C 62.76 357.20 63.08 356.43 63.23 356.05 C 63.96 363.91 65.54 371.72 68.34 379.12 C 62.82 378.22 58.03 375.13 52.84 373.24 C 36.84 366.65 20.99 359.69 5.11 352.84 C 3.67 346.63 2.55 340.35 1.80 334.02 C 1.94 333.59 2.23 332.71 2.37 332.27 Z"
     id="path8388" />
  <path
     fill="#f36319"
     d=" M 433.72 345.49 C 446.52 350.15 459.70 353.73 473.09 356.22 C 469.05 357.50 467.30 361.67 464.28 364.29 C 452.16 375.62 439.54 386.52 425.61 395.62 C 422.50 397.59 419.16 399.28 416.56 401.94 C 408.31 393.23 399.95 384.62 391.39 376.20 C 406.52 367.53 421.28 357.79 433.72 345.49 Z"
     id="path8390" />
  <path
     fill="#39972c"
     d=" M 227.69 347.20 C 233.16 348.05 237.96 350.89 243.02 352.94 C 252.84 357.06 262.60 361.33 272.40 365.48 C 276.26 367.21 280.09 369.10 284.25 370.04 C 289.31 375.75 294.74 381.12 300.46 386.18 C 317.65 401.64 338.67 412.73 361.20 417.97 C 345.39 415.27 329.94 410.58 315.02 404.71 C 306.77 401.32 298.71 397.48 291.01 392.98 C 268.49 379.82 247.48 364.17 227.69 347.20 Z"
     id="path8392" />
  <path
     fill="#0a6729"
     d=" M 5.11 352.84 C 20.99 359.69 36.84 366.65 52.84 373.24 C 58.03 375.13 62.82 378.22 68.34 379.12 C 68.50 379.52 68.81 380.30 68.97 380.70 C 73.64 392.95 82.86 403.73 94.92 409.16 C 105.46 413.97 117.51 414.59 128.82 412.64 C 135.14 411.79 141.11 409.51 147.26 407.95 C 125.74 422.64 98.80 430.00 72.85 426.27 C 54.37 423.62 36.96 413.89 25.37 399.21 C 14.41 385.99 9.09 369.27 5.11 352.84 Z"
     id="path8394" />
  <path
     fill="#f36618"
     d=" M 139.77 375.44 C 147.64 368.37 154.87 360.63 161.72 352.60 C 168.69 357.88 175.53 363.40 183.12 367.79 C 185.76 369.33 188.20 371.19 190.59 373.09 C 182.28 380.17 174.13 387.44 165.54 394.19 C 156.69 388.30 148.13 382.00 139.77 375.44 Z"
     id="path8396" />
  <path
     fill="#f14e1c"
     d=" M 464.28 364.29 C 467.30 361.67 469.05 357.50 473.09 356.22 C 483.82 358.25 494.77 359.39 505.70 359.26 C 505.63 359.63 505.49 360.37 505.42 360.74 C 503.50 359.92 501.41 360.36 500.25 362.17 C 487.00 378.86 471.41 393.59 454.57 406.61 C 449.38 410.72 443.42 413.85 438.77 418.62 C 436.82 419.06 434.86 419.46 432.88 419.75 C 427.55 413.70 422.07 407.81 416.56 401.94 C 419.16 399.28 422.50 397.59 425.61 395.62 C 439.54 386.52 452.16 375.62 464.28 364.29 Z"
     id="path8398" />
  <path
     fill="#f0421e"
     d=" M 500.25 362.17 C 501.41 360.36 503.50 359.92 505.42 360.74 C 504.48 364.95 503.03 369.04 501.22 372.96 C 495.96 383.98 487.90 393.57 478.33 401.10 C 469.45 407.90 459.20 412.76 448.53 416.05 C 445.31 417.03 442.05 417.89 438.77 418.62 C 443.42 413.85 449.38 410.72 454.57 406.61 C 471.41 393.59 487.00 378.86 500.25 362.17 Z"
     id="path8400" />
  <path
     fill="#f14e1c"
     d=" M 109.39 395.48 C 120.80 391.04 130.76 383.60 139.77 375.44 C 148.13 382.00 156.69 388.30 165.54 394.19 C 159.57 398.94 153.48 403.54 147.26 407.95 C 141.11 409.51 135.14 411.79 128.82 412.64 C 122.71 406.50 115.00 402.12 109.39 395.48 Z"
     id="path8402" />
  <path
     fill="#368dca"
     d=" M 589.99 385.04 C 593.40 382.25 596.60 379.18 600.44 376.96 C 595.40 395.09 585.96 411.93 573.37 425.91 C 567.79 427.27 562.50 429.56 556.94 430.97 C 544.60 434.33 531.84 436.63 519.01 435.97 C 508.92 436.49 498.86 435.03 489.03 432.88 C 480.45 431.11 472.01 428.57 464.04 424.94 C 458.62 422.51 452.55 420.68 448.53 416.05 C 459.20 412.76 469.45 407.90 478.33 401.10 C 484.57 405.00 492.02 406.27 499.14 407.68 C 505.68 409.15 512.43 408.70 519.02 409.82 C 527.53 408.60 536.27 409.15 544.59 406.62 C 561.12 403.02 576.62 395.34 589.99 385.04 Z"
     id="path8404" />
  <path
     fill="#f03c1f"
     d=" M 68.97 380.70 C 71.92 385.94 75.31 391.32 80.66 394.42 C 89.29 399.58 100.25 398.95 109.39 395.48 C 115.00 402.12 122.71 406.50 128.82 412.64 C 117.51 414.59 105.46 413.97 94.92 409.16 C 82.86 403.73 73.64 392.95 68.97 380.70 Z"
     id="path8406" />
  <path
     fill="#2766ae"
     d=" M 315.02 404.71 C 329.94 410.58 345.39 415.27 361.20 417.97 C 362.85 418.27 364.51 418.55 366.18 418.81 C 365.67 418.95 364.67 419.21 364.17 419.34 C 366.13 423.06 369.41 425.73 372.09 428.88 C 376.18 434.09 380.95 438.76 386.11 442.91 C 401.58 456.80 419.16 468.31 438.06 476.95 L 436.24 477.17 C 405.29 475.21 374.94 466.24 347.26 452.39 C 346.30 449.40 343.87 447.37 341.82 445.14 C 332.22 434.09 324.28 421.73 316.74 409.22 C 315.94 407.81 315.50 406.24 315.02 404.71 Z"
     id="path8408" />
  <path
     fill="#3282c3"
     d=" M 438.77 418.62 C 442.05 417.89 445.31 417.03 448.53 416.05 C 452.55 420.68 458.62 422.51 464.04 424.94 C 472.01 428.57 480.45 431.11 489.03 432.88 C 498.86 435.03 508.92 436.49 519.01 435.97 C 531.84 436.63 544.60 434.33 556.94 430.97 C 562.50 429.56 567.79 427.27 573.37 425.91 C 563.05 437.30 550.93 447.07 537.59 454.70 C 534.75 453.77 531.84 454.51 528.99 454.86 C 491.57 456.95 453.25 445.78 423.41 422.95 C 423.52 422.46 423.73 421.46 423.84 420.97 C 426.86 420.60 429.86 420.13 432.88 419.75 C 434.86 419.46 436.82 419.06 438.77 418.62 Z"
     id="path8410" />
  <path
     fill="#2b71b6"
     d=" M 364.17 419.34 C 364.67 419.21 365.67 418.95 366.18 418.81 C 376.29 420.51 386.51 421.52 396.75 422.01 C 396.69 422.47 396.56 423.40 396.50 423.86 C 411.53 439.57 430.78 450.52 450.37 459.57 C 456.86 462.34 463.64 464.35 470.33 466.58 C 478.32 469.12 486.80 469.61 494.76 472.20 C 485.18 474.57 475.43 476.53 465.56 477.09 C 462.02 476.87 458.48 477.07 454.95 477.34 C 449.31 477.79 443.70 476.86 438.06 476.95 C 419.16 468.31 401.58 456.80 386.11 442.91 C 380.95 438.76 376.18 434.09 372.09 428.88 C 369.41 425.73 366.13 423.06 364.17 419.34 Z"
     id="path8412" />
  <path
     fill="#2f7abd"
     d=" M 396.75 422.01 C 405.80 422.27 414.84 421.99 423.84 420.97 C 423.73 421.46 423.52 422.46 423.41 422.95 C 453.25 445.78 491.57 456.95 528.99 454.86 C 531.84 454.51 534.75 453.77 537.59 454.70 C 524.23 462.53 509.72 468.28 494.76 472.20 C 486.80 469.61 478.32 469.12 470.33 466.58 C 463.64 464.35 456.86 462.34 450.37 459.57 C 430.78 450.52 411.53 439.57 396.50 423.86 C 396.56 423.40 396.69 422.47 396.75 422.01 Z"
     id="path8414" />
  <path
     fill="#8888a8"
     d=" M 436.24 477.17 L 438.06 476.95 C 443.70 476.86 449.31 477.79 454.95 477.34 C 458.48 477.07 462.02 476.87 465.56 477.09 L 463.71 478.00 L 437.23 478.00 L 436.24 477.17 Z"
     id="path8416" />
  <g
     inkscape:groupmode="layer"
     id="layer1"
     inkscape:label="Layer 1"
     style="display:inline">
    <path
       inkscape:connector-curvature="0"
       style="fill:#0b8237"
       d="m 171.21158,16.108964 c 16.8,-8.8499993 35.34,-14.9099993 54.4,-15.7199993 13.45,-0.53 27.65,2.47 38.23,11.1999993 -7.73,-4.0699993 -16.41,-6.7699993 -25.23,-5.8599993 -17.11,1.32 -31.87,11.1899993 -45.64,20.5999993 -7.1,-3.72 -15.2,-5.57 -21.76,-10.22 z"
       id="path8292-2" />
    <path
       inkscape:connector-curvature="0"
       style="fill:#f57b14"
       d="m 192.97158,26.328964 c 13.77,-9.41 28.53,-19.2799993 45.64,-20.5999993 8.82,-0.91 17.5,1.79 25.23,5.8599993 4.54,3.86 8.17,8.68 11.33,13.7 -8.55,2.39 -17.66,2.24 -25.95,5.68 -3.1,-3.94 -7,-7.42 -11.79,-9.1 -9.95,-3.31 -20.93,-2.81 -30.77,0.68 -12.39,4.08 -22.8,12.2 -33.05,19.99 5.51,-6.39 12.69,-11.11 19.36,-16.21 z"
       id="path8294-3" />
    <path
       inkscape:connector-curvature="0"
       style="fill:#198c36"
       d="m 141.12158,34.848964 c 9.59,-6.91 19.55,-13.38 30.09,-18.74 6.56,4.65 14.66,6.5 21.76,10.22 -6.67,5.1 -13.85,9.82 -19.36,16.21 -1.7,1.43 -3.42,2.86 -5.02,4.41 -6.04,-1.63 -11.52,-4.74 -17.33,-7.01 -3.46,-1.51 -7.18,-2.63 -10.14,-5.09 z"
       id="path8296-2" />
    <path
       inkscape:connector-curvature="0"
       style="fill:#f68e11"
       d="m 249.22158,30.968964 c 8.29,-3.44 17.4,-3.29 25.95,-5.68 8.36,13.95 13.17,29.73 16.32,45.6 -4.28,0.93 -8.68,0.75 -12.99,1.44 -5.38,0.77 -10.73,1.76 -16.13,2.47 -1.47,-15.18 -4.04,-31.15 -13.15,-43.83 z"
       id="path8300-4" />
    <path
       inkscape:connector-curvature="0"
       style="fill:#259535"
       d="m 120.01158,51.818964 c 6.74,-6.02 13.79,-11.68 21.11,-16.97 2.96,2.46 6.68,3.58 10.14,5.09 5.81,2.27 11.29,5.38 17.33,7.01 -6.59,6.05 -12.7,12.6 -18.41,19.48 -3.1,-3.49 -7.95,-4.19 -11.96,-6.2 -6.04,-2.88 -12.57,-4.75 -18.21,-8.41 z"
       id="path8302-1" />
    <path
       inkscape:connector-curvature="0"
       style="fill:#2f9c34"
       d="m 103.12158,67.878964 c 5.43,-5.56 11.07,-10.91 16.89,-16.06 5.64,3.66 12.17,5.53 18.21,8.41 4.01,2.01 8.86,2.71 11.96,6.2 -4.59,5.52 -9,11.21 -13.1,17.11 -10.88,-6.13 -23.19,-9.37 -33.96,-15.66 z"
       id="path8304-5" />
    <path
       inkscape:connector-curvature="0"
       style="fill:#3ba533"
       d="m 81.181576,92.678964 c 6.94,-8.59 14.24,-16.88 21.940004,-24.8 10.77,6.29 23.08,9.53 33.96,15.66 -5.94,8.52 -11.41,17.370016 -16.27,26.540006 -7.79,-2.83 -15.27,-6.41999 -22.930004,-9.57999 -5.57,-2.580012 -11.55,-4.370016 -16.7,-7.820016 z"
       id="path8306-6" />
    <path
       inkscape:connector-curvature="0"
       style="fill:#f8a00e"
       d="m 291.49158,70.888964 c 2.13,10.84 3.41,21.85 3.91,32.890006 -11.08,-0.70999 -22.36,0.66 -32.67,4.9 0.6,-11.290006 0.58,-22.610006 -0.36,-33.880006 5.4,-0.71 10.75,-1.7 16.13,-2.47 4.31,-0.69 8.71,-0.51 12.99,-1.44 z"
       id="path8308-9" />
    <path
       inkscape:connector-curvature="0"
       style="fill:#48ae32"
       d="m 64.771576,114.61897 c 5.24,-7.48 10.65,-14.849994 16.41,-21.940006 5.15,3.45 11.13,5.240004 16.7,7.820016 7.660004,3.16 15.140004,6.74999 22.930004,9.57999 -4.35,8.31 -8.38,16.79 -11.74,25.55 -1.43,-1.03 -2.86,-2.1 -4.48,-2.83 -11.960004,-5.06 -23.870004,-10.24 -35.920004,-15.1 -1.65,-0.52 -2.8,-1.82 -3.9,-3.08 z"
       id="path8310-7" />
    <path
       inkscape:connector-curvature="0"
       style="fill:#f9ae0b"
       d="m 262.73158,108.67897 c 10.31,-4.24 21.59,-5.60999 32.67,-4.9 0.37,8.54 0.27,17.11 -0.54,25.62 -2.05,-0.45 -4.15,-0.89 -6.25,-0.55 -5.36,0.66 -10.78,1.25 -15.92,2.98 -4.39,1.34 -8.35,3.75 -12.64,5.34 1.25,-9.46 2.17,-18.97 2.68,-28.49 z"
       id="path8312-8" />
    <path
       inkscape:connector-curvature="0"
       style="fill:#f9ae0b"
       d="m 319.18158,113.20897 c 9.44,-3.99 21.66,1.12 25.22,10.8 3.53,9.1 1.38,19.16 -1.75,28.04 -8.1,-8.01 -17.12,-15.76 -28.2,-19.19 -3.75,-1.23 -7.56,-2.29 -11.32,-3.48 3.81,-6.62 8.79,-13.16 16.05,-16.17 z"
       id="path8314-6" />
    <path
       inkscape:connector-curvature="0"
       style="fill:#56b831"
       d="m 46.991576,142.71897 c 5.56,-9.59 11.43,-19.01 17.78,-28.1 1.1,1.26 2.25,2.56 3.9,3.08 12.05,4.86 23.96,10.04 35.920004,15.1 1.62,0.73 3.05,1.8 4.48,2.83 -1.51,4.63 -4.33,9.25 -3.75,14.26 2.57,0.75 3.34,-2.78 4.77,-4.25 2,1.26 4.04,2.47 6.23,3.38 10.77,4.43 21.32,9.39 32.22,13.51 0.74,-0.6 1.48,-1.2 2.21,-1.8 -0.85,8.24 -3.98,16.03 -8.08,23.17 -20.08,-8.73 -40.21,-17.38 -60.420004,-25.81 -11.68,-5.28 -23.7,-9.81 -35.26,-15.37 z"
       id="path8316-4" />
    <path
       inkscape:connector-curvature="0"
       style="fill:#fabd09"
       d="m 272.69158,131.82897 c 5.14,-1.73 10.56,-2.32 15.92,-2.98 2.1,-0.34 4.2,0.1 6.25,0.55 0.19,2.72 -1.75,7.46 1.68,8.66 3.6,-1.51 4.75,-5.58 6.59,-8.68 3.76,1.19 7.57,2.25 11.32,3.48 11.08,3.43 20.1,11.18 28.2,19.19 -0.31,1.9 0.67,3.28 2.48,3.8 5.42,8.48 9.95,17.81 11.27,27.89 0.51,5.21 0.34,10.46 0.57,15.69 -11.36,4.89 -21.97,12.9 -27.43,24.27 -2.14,4.31 -3.46,9 -4.13,13.76 -5.98,2.14 -11.06,6.26 -17.24,7.9 -7.22,1.82 -14.79,3.32 -22.23,1.95 -5.58,-1.05 -11.23,-2.18 -16.39,-4.6 -7.6,-3.95 -14.81,-9.04 -19.86,-16.07 -3.06,-3.57 -4.61,-8.16 -7.88,-11.54 8.64,-25.29 14.66,-51.46 18.24,-77.93 4.29,-1.59 8.25,-4 12.64,-5.34 z"
       id="path8318-4" />
    <path
       inkscape:connector-curvature="0"
       style="fill:#4eb332"
       d="m 110.09158,145.63897 c 4.68,-5.98 11.62,-10.96 19.49,-10.89 6.67,0.01 13.89,2.53 17.81,8.22 3.55,5.13 4.04,11.72 3.36,17.76 -0.73,0.6 -1.47,1.2 -2.21,1.8 -10.9,-4.12 -21.45,-9.08 -32.22,-13.51 -2.19,-0.91 -4.23,-2.12 -6.23,-3.38 z"
       id="path8320-6" />
    <path
       inkscape:connector-curvature="0"
       style="fill:#60bf30"
       d="m 23.411576,191.16897 c 6.72,-16.67 14.61,-32.87 23.58,-48.45 11.56,5.56 23.58,10.09 35.26,15.37 20.210004,8.43 40.340004,17.08 60.420004,25.81 -1.5,3.96 2.01,6.75 4.94,8.61 28.78,19.57 51.41,46.86 69.67,76.21 1.21,1.97 2.37,3.96 3.57,5.94 -5.66,-1.21 -10.83,-3.84 -16.12,-6.08 -45.76,-19.58 -91.45,-39.3 -137.280004,-58.7 -14.72,-6.14 -29.22,-12.8 -44.04,-18.71 z"
       id="path8322-5" />
    <path
       inkscape:connector-curvature="0"
       style="fill:#f9aa0c"
       d="m 345.13158,155.84897 c 16.06,-0.85 32.17,-0.65 48.2,0.61 3.1,11 5.75,22.15 6.32,33.61 -14.57,0.92 -29.23,3.5 -42.68,9.36 -0.23,-5.23 -0.06,-10.48 -0.57,-15.69 -1.32,-10.08 -5.85,-19.41 -11.27,-27.89 z"
       id="path8324-2" />
    <path
       inkscape:connector-curvature="0"
       style="fill:#f79b0f"
       d="m 393.33158,156.45897 c 6.85,0.51 13.68,1.2 20.48,2.12 2.59,10.28 4.6,20.78 4.94,31.4 -6.37,-0.22 -12.74,-0.31 -19.1,0.09 -0.57,-11.46 -3.22,-22.61 -6.32,-33.61 z"
       id="path8326-4" />
    <path
       inkscape:connector-curvature="0"
       style="fill:#f79310"
       d="m 413.81158,158.57897 c 6.64,0.91 13.25,1.97 19.83,3.26 -1.64,3.98 0.37,8.06 0.72,12.08 0.58,5.82 1.67,11.64 1.21,17.52 -5.58,-0.77 -11.2,-1.21 -16.82,-1.46 -0.34,-10.62 -2.35,-21.12 -4.94,-31.4 z"
       id="path8328-5" />
    <path
       inkscape:connector-curvature="0"
       style="fill:#f58413"
       d="m 434.36158,173.91897 c -0.35,-4.02 -2.36,-8.1 -0.72,-12.08 14.07,2.75 27.97,6.51 41.34,11.73 2.17,1.42 4.44,2.68 6.73,3.91 -0.79,4.78 0.81,9.47 0.82,14.24 0.12,4.11 -0.2,8.23 -1.14,12.24 -14.62,-6.22 -30.07,-10.44 -45.82,-12.52 0.46,-5.88 -0.63,-11.7 -1.21,-17.52 z"
       id="path8330-9" />
    <path
       inkscape:connector-curvature="0"
       style="fill:#fbca06"
       d="m 288.88158,167.03897 c 7.28,-1.3 14.61,1.93 20.52,5.99 5.16,4.79 9.42,11.42 9.3,18.69 0.42,6.51 -1.3,13.37 -5.56,18.42 -5.01,6.58 -13.38,10.14 -21.58,9.76 -7.66,0.41 -14.77,-3.97 -19.78,-9.45 -3.48,-4.9 -5.74,-10.66 -6.22,-16.67 0.68,-5.05 1.58,-10.3 4.45,-14.63 1.83,-2.47 4.13,-4.55 6.35,-6.67 3.42,-3.18 8.09,-4.41 12.52,-5.44 z"
       id="path8332-7" />
    <path
       inkscape:connector-curvature="0"
       style="fill:#3993cf"
       d="m 474.98158,173.56897 c 9.11,2.88 17.65,7.27 26.02,11.82 -1.81,-0.31 -3.83,-0.58 -4.94,1.23 -4.68,-3.22 -9.44,-6.3 -14.35,-9.14 -2.29,-1.23 -4.56,-2.49 -6.73,-3.91 z"
       id="path8334-7" />
    <path
       inkscape:connector-curvature="0"
       style="fill:#f47416"
       d="m 481.71158,177.47897 c 4.91,2.84 9.67,5.92 14.35,9.14 1.26,0.89 2.53,1.81 3.77,2.75 -0.68,7.57 0.67,15.32 -1.58,22.72 -5.46,-3.02 -11.12,-5.68 -16.86,-8.13 0.94,-4.01 1.26,-8.13 1.14,-12.24 -0.01,-4.77 -1.61,-9.46 -0.82,-14.24 z"
       id="path8336-3" />
    <path
       inkscape:connector-curvature="0"
       style="fill:#3c9bd4"
       d="m 496.06158,186.61897 c 1.11,-1.81 3.13,-1.54 4.94,-1.23 9.44,5.25 18.37,11.37 26.91,17.98 -2.11,1.74 -4.1,3.61 -5.96,5.61 -2.86,-2.93 -5.79,-5.8 -8.79,-8.57 -4.26,-3.91 -8.68,-7.63 -13.33,-11.04 -1.24,-0.94 -2.51,-1.86 -3.77,-2.75 z"
       id="path8338-9" />
    <path
       inkscape:connector-curvature="0"
       style="fill:#f36b17"
       d="m 499.83158,189.36897 c 4.65,3.41 9.07,7.13 13.33,11.04 -0.77,4.08 -1.57,8.19 -1.49,12.37 0.08,2.26 -0.38,4.48 -1.26,6.56 -3.92,-2.63 -8,-5.02 -12.16,-7.25 2.25,-7.4 0.9,-15.15 1.58,-22.72 z"
       id="path8342-0" />
    <path
       inkscape:connector-curvature="0"
       style="fill:#51ae2e"
       d="m 12.361575,222.80897 c 3.16,-10.72 6.91,-21.26 11.050001,-31.64 14.82,5.91 29.32,12.57 44.04,18.71 45.830004,19.4 91.520004,39.12 137.280004,58.7 5.29,2.24 10.46,4.87 16.12,6.08 5.13,8.38 10.24,16.78 15.22,25.27 5.34,9.1 10.76,18.16 16.35,27.12 0.31,0.47 0.93,1.42 1.24,1.89 -27.08,-11.77 -54.37,-23.05 -81.46,-34.77 -1.04,-0.16 -2.07,-0.05 -3.1,0.32 -13.61,-11.77 -29.79,-24.1 -48.87,-22.33 1.4,-0.25 2.77,-0.58 4.15,-0.91 -28.820004,-12.33 -57.630004,-24.69 -86.500004,-36.9 -8.46,-3.94 -17.460001,-6.8 -25.520001,-11.54 z"
       id="path8344-7" />
    <path
       inkscape:connector-curvature="0"
       style="fill:#f36219"
       d="m 513.16158,200.40897 c 3,2.77 5.93,5.64 8.79,8.57 1.37,1.44 2.71,2.91 4.02,4.41 -0.37,5.53 -1.36,11 -1.65,16.54 -4.36,-3.88 -9.09,-7.31 -13.91,-10.59 0.88,-2.08 1.34,-4.3 1.26,-6.56 -0.08,-4.18 0.72,-8.29 1.49,-12.37 z"
       id="path8346-0" />
    <path
       inkscape:connector-curvature="0"
       style="fill:#40a6dd"
       d="m 521.95158,208.97897 c 1.86,-2 3.85,-3.87 5.96,-5.61 32.4,25.6 59.05,59.98 70.94,99.89 -0.65,21.67 -13.11,41.71 -29.61,55.15 -17.68,14.04 -41.4,20.33 -63.71,16.49 -1.79,-0.18 -3.29,-1.19 -4.71,-2.2 1.81,-3.92 3.26,-8.01 4.2,-12.22 0.07,-0.37 0.21,-1.11 0.28,-1.48 0.22,-1.5 0.43,-3 0.62,-4.5 12.79,2.84 26.42,1.16 38.38,-4.08 14.2,-6.66 25.87,-18.79 31.5,-33.49 4.2,-9.76 4.29,-20.57 3.48,-30.98 -2.13,-14.61 -9.6,-28.37 -20.97,-37.83 -4.37,-3.33 -8.65,-7.46 -14.31,-8.29 -1.13,-2.24 -2.36,-4.42 -3.63,-6.57 -4.13,-7.08 -9.08,-13.64 -14.4,-19.87 -1.31,-1.5 -2.65,-2.97 -4.02,-4.41 z"
       id="path8348-6" />
    <path
       inkscape:connector-curvature="0"
       style="fill:#f2571a"
       d="m 525.97158,213.38897 c 5.32,6.23 10.27,12.79 14.4,19.87 -2.12,2.94 -1.92,6.75 -3.12,10.06 -3.91,-4.83 -8.23,-9.32 -12.93,-13.39 0.29,-5.54 1.28,-11.01 1.65,-16.54 z"
       id="path8350-1" />
    <path
       inkscape:connector-curvature="0"
       style="fill:#f9b30b"
       d="m 241.81158,215.09897 c 3.27,3.38 4.82,7.97 7.88,11.54 5.05,7.03 12.26,12.12 19.86,16.07 5.16,2.42 10.81,3.55 16.39,4.6 7.44,1.37 15.01,-0.13 22.23,-1.95 6.18,-1.64 11.26,-5.76 17.24,-7.9 -1.14,8.46 0.27,17.08 3.25,25.03 -9.97,3.99 -20.18,7.99 -31.05,8.35 -6.34,0.05 -12.78,0.46 -19,-1.09 -18.65,-3.05 -35.49,-13.89 -47.4,-28.36 4.02,-8.56 7.52,-17.36 10.6,-26.29 z"
       id="path8352-1" />
    <path
       inkscape:connector-curvature="0"
       style="fill:#43a02d"
       d="m 4.3115753,256.56897 c 2.02,-11.4 4.8,-22.65 8.0499997,-33.76 8.06,4.74 17.060001,7.6 25.520001,11.54 28.87,12.21 57.68,24.57 86.500004,36.9 -1.38,0.33 -2.75,0.66 -4.15,0.91 -6.58,0.87 -13.21,2.08 -19.31,4.81 -7.140004,3.15 -13.450004,8.04 -18.620004,13.86 -1.17,-0.79 -2.32,-1.62 -3.58,-2.25 -24.76,-10.76 -49.69,-21.15 -74.4100007,-32.01 z"
       id="path8354-1" />
    <path
       inkscape:connector-curvature="0"
       style="fill:#f14c1c"
       d="m 537.25158,243.31897 c 1.2,-3.31 1,-7.12 3.12,-10.06 1.27,2.15 2.5,4.33 3.63,6.57 7.74,15.31 11.7,33.19 7.71,50.16 2.86,-16.74 -4.23,-33.68 -14.46,-46.67 z"
       id="path8356-8" />
    <path
       inkscape:connector-curvature="0"
       style="fill:#44b0e4"
       d="m 544.00158,239.82897 c 5.66,0.83 9.94,4.96 14.31,8.29 11.37,9.46 18.84,23.22 20.97,37.83 0.81,10.41 0.72,21.22 -3.48,30.98 -5.63,14.7 -17.3,26.83 -31.5,33.49 -11.96,5.24 -25.59,6.92 -38.38,4.08 1.54,-10.94 -0.2,-21.95 -0.9,-32.89 7.45,3.21 16.21,4.8 23.9,1.42 9.52,-3.38 17.22,-11.76 19.29,-21.7 0.21,-1.04 -0.16,-2.07 -0.28,-3.08 2.12,-2.3 3.14,-5.27 3.78,-8.26 3.99,-16.97 0.03,-34.85 -7.71,-50.16 z"
       id="path8358-2" />
    <path
       inkscape:connector-curvature="0"
       style="fill:#f8a30d"
       d="m 217.28158,268.71897 c 5.02,-8.91 9.65,-18.05 13.93,-27.33 11.91,14.47 28.75,25.31 47.4,28.36 6.22,1.55 12.66,1.14 19,1.09 10.87,-0.36 21.08,-4.36 31.05,-8.35 5.01,13.36 13.81,24.98 23.88,34.95 -4.95,1.92 -9.48,4.75 -14.36,6.82 -12.39,5.33 -25.8,7.89 -39.2,8.85 -6.49,1.43 -12.97,-0.37 -19.46,-0.59 -8.14,-0.47 -16.02,-2.77 -23.83,-4.95 -6.79,-1.89 -12.94,-5.46 -19.62,-7.64 -4.98,-8.49 -10.09,-16.89 -15.22,-25.27 -1.2,-1.98 -2.36,-3.97 -3.57,-5.94 z"
       id="path8360-3" />
    <path
       inkscape:connector-curvature="0"
       style="fill:#35922c"
       d="m 1.3415753,277.55897 c 0.68,-7.04 1.79,-14.02 2.97,-20.99 24.7200007,10.86 49.6500007,21.25 74.4100007,32.01 1.26,0.63 2.41,1.46 3.58,2.25 -6.16,6.96 -10.66,15.23 -13.87,23.91 -2.17,-2.83 -5.77,-3.56 -8.85,-4.94 -18.47,-7.86 -36.890001,-15.87 -55.3600007,-23.73 -3.56000012,-1.16 -2.27,-5.67 -2.88,-8.51 z"
       id="path8362-0" />
    <path
       inkscape:connector-curvature="0"
       style="fill:#2a872b"
       d="m -0.28842476,307.44897 c -0.16,-9.99 0.58999998,-19.96 1.63000006,-29.89 0.61,2.84 -0.68000012,7.35 2.88,8.51 18.4699997,7.86 36.8900007,15.87 55.3600007,23.73 3.08,1.38 6.68,2.11 8.85,4.94 -2.77,7.45 -4.53,15.26 -5.32,23.17 -0.33,-2.22 -0.99,-4.59 -3.46,-5.15 -20.05,-8.27 -39.760001,-17.38 -59.94000076,-25.31 z"
       id="path8366-6" />
    <path
       inkscape:connector-curvature="0"
       style="fill:#4abeee"
       d="m 508.94158,300.05897 c 2.84,-4.7 7.1,-9 12.63,-10.22 5.46,-1.44 11.27,0.14 16.01,2.99 3.38,1.95 6.17,5.29 10.35,5.42 0.12,1.01 0.49,2.04 0.28,3.08 -2.07,9.94 -9.77,18.32 -19.29,21.7 -7.69,3.38 -16.45,1.79 -23.9,-1.42 -0.4,-7.32 0.02,-15.12 3.92,-21.55 z"
       id="path8368-6" />
    <path
       inkscape:connector-curvature="0"
       style="fill:#43a12d"
       d="m 169.10158,294.48897 c 1.03,-0.37 2.06,-0.48 3.1,-0.32 27.09,11.72 54.38,23 81.46,34.77 9.02,14.33 18.87,28.21 30.19,40.84 -4.16,-0.94 -7.99,-2.83 -11.85,-4.56 -9.8,-4.15 -19.56,-8.42 -29.38,-12.54 -5.06,-2.05 -9.86,-4.89 -15.33,-5.74 -8.98,-7.1 -17.18,-15.15 -26.04,-22.37 -3.72,-3.55 -7.35,-7.2 -11.12,-10.7 -6.97,-6.5 -13.81,-13.15 -21.03,-19.38 z"
       id="path8370-3" />
    <path
       inkscape:connector-curvature="0"
       style="fill:#f79710"
       d="m 338.18158,304.25897 c 4.88,-2.07 9.41,-4.9 14.36,-6.82 3.59,3.56 7.36,6.95 11.29,10.15 -9.73,6.48 -20.54,11.13 -31.64,14.69 -2.8,0.9 -6.09,0.97 -8.18,3.3 -12.98,-5.65 -27.29,-8.79 -41.47,-7.3 -10.5,0.94 -20.62,4.32 -30.12,8.77 -5.59,-8.96 -11.01,-18.02 -16.35,-27.12 6.68,2.18 12.83,5.75 19.62,7.64 7.81,2.18 15.69,4.48 23.83,4.95 6.49,0.22 12.97,2.02 19.46,0.59 13.4,-0.96 26.81,-3.52 39.2,-8.85 z"
       id="path8372-0" />
    <path
       inkscape:connector-curvature="0"
       style="fill:#3c9ad4"
       d="m 598.85158,303.25897 c 7.12,23.74 7.9,49.52 1.19,73.44 -3.84,2.22 -7.04,5.29 -10.45,8.08 -13.37,10.3 -28.87,17.98 -45.4,21.58 -8.32,2.53 -17.06,1.98 -25.57,3.2 -6.59,-1.12 -13.34,-0.67 -19.88,-2.14 -7.12,-1.41 -14.57,-2.68 -20.81,-6.58 9.57,-7.53 17.63,-17.12 22.89,-28.14 1.42,1.01 2.92,2.02 4.71,2.2 22.31,3.84 46.03,-2.45 63.71,-16.49 16.5,-13.44 28.96,-33.48 29.61,-55.15 z"
       id="path8374-0" />
    <path
       inkscape:connector-curvature="0"
       style="fill:#207e2b"
       d="m -0.28842476,307.44897 c 20.17999976,7.93 39.89000076,17.04 59.94000076,25.31 2.47,0.56 3.13,2.93 3.46,5.15 -0.75,5.92 -0.74,11.93 -0.28,17.88 -0.15,0.38 -0.47,1.15 -0.62,1.53 -20.25,-8.01 -39.920001,-17.48 -60.2400007,-25.31 -0.14,0.44 -0.43,1.32 -0.57,1.75 -1.10000008,-8.72 -1.73000006,-17.51 -1.69000006,-26.31 z"
       id="path8376-9" />
    <path
       inkscape:connector-curvature="0"
       style="fill:#f68c11"
       d="m 332.19158,322.27897 c 11.1,-3.56 21.91,-8.21 31.64,-14.69 8.28,6.62 17.05,12.63 26.27,17.9 -6.59,5.64 -14.33,9.69 -21.84,13.94 -3.75,2.13 -8.02,3.36 -11.37,6.16 -10.24,-7.76 -21.07,-14.88 -32.88,-20.01 2.09,-2.33 5.38,-2.4 8.18,-3.3 z"
       id="path8378-3" />
    <path
       inkscape:connector-curvature="0"
       style="fill:#f57c14"
       d="m 190.13158,313.86897 c 3.77,3.5 7.4,7.15 11.12,10.7 6.88,7.35 14.07,14.39 20.96,21.73 -11.23,8.15 -21.5,17.51 -32.02,26.53 -2.39,-1.9 -4.83,-3.76 -7.47,-5.3 -7.59,-4.39 -14.43,-9.91 -21.4,-15.19 10.39,-12.22 19.89,-25.15 28.81,-38.47 z"
       id="path8380-8" />
    <path
       inkscape:connector-curvature="0"
       style="fill:#2157a3"
       d="m 201.25158,324.56897 c 8.86,7.22 17.06,15.27 26.04,22.37 19.79,16.97 40.8,32.62 63.32,45.78 7.7,4.5 15.76,8.34 24.01,11.73 0.48,1.53 0.92,3.1 1.72,4.51 7.54,12.51 15.48,24.87 25.08,35.92 2.05,2.23 4.48,4.26 5.44,7.25 -33.42,-16.51 -62.91,-40.23 -88.13,-67.55 -12.16,-12.77 -24.37,-25.5 -36.52,-38.28 -6.89,-7.34 -14.08,-14.38 -20.96,-21.73 z"
       id="path8384-7" />
    <path
       inkscape:connector-curvature="0"
       style="fill:#f57a15"
       d="m 390.10158,325.48897 c 13.8,7.81 28.27,14.43 43.22,19.74 -12.44,12.3 -27.2,22.04 -42.33,30.71 -10.91,-10.61 -22.06,-21.02 -34.1,-30.35 3.35,-2.8 7.62,-4.03 11.37,-6.16 7.51,-4.25 15.25,-8.3 21.84,-13.94 z"
       id="path8386-2" />
    <path
       inkscape:connector-curvature="0"
       style="fill:#18752a"
       d="m 1.9715753,332.00897 c 20.3199997,7.83 39.9900007,17.3 60.2400007,25.31 0.15,-0.38 0.47,-1.15 0.62,-1.53 0.73,7.86 2.31,15.67 5.11,23.07 -5.52,-0.9 -10.31,-3.99 -15.5,-5.88 -16,-6.59 -31.850001,-13.55 -47.7300007,-20.4 -1.44,-6.21 -2.56,-12.49 -3.31,-18.82 0.14,-0.43 0.43,-1.31 0.57,-1.75 z"
       id="path8388-9" />
    <path
       inkscape:connector-curvature="0"
       style="fill:#f36319"
       d="m 433.32158,345.22897 c 12.8,4.66 25.98,8.24 39.37,10.73 -4.04,1.28 -5.79,5.45 -8.81,8.07 -12.12,11.33 -24.74,22.23 -38.67,31.33 -3.11,1.97 -6.45,3.66 -9.05,6.32 -8.25,-8.71 -16.61,-17.32 -25.17,-25.74 15.13,-8.67 29.89,-18.41 42.33,-30.71 z"
       id="path8390-2" />
    <path
       inkscape:connector-curvature="0"
       style="fill:#39972c"
       d="m 227.29158,346.93897 c 5.47,0.85 10.27,3.69 15.33,5.74 9.82,4.12 19.58,8.39 29.38,12.54 3.86,1.73 7.69,3.62 11.85,4.56 5.06,5.71 10.49,11.08 16.21,16.14 17.19,15.46 38.21,26.55 60.74,31.79 -15.81,-2.7 -31.26,-7.39 -46.18,-13.26 -8.25,-3.39 -16.31,-7.23 -24.01,-11.73 -22.52,-13.16 -43.53,-28.81 -63.32,-45.78 z"
       id="path8392-9" />
    <path
       inkscape:connector-curvature="0"
       style="fill:#0a6729"
       d="m 4.7115753,352.57897 c 15.8799997,6.85 31.7300007,13.81 47.7300007,20.4 5.19,1.89 9.98,4.98 15.5,5.88 0.16,0.4 0.47,1.18 0.63,1.58 4.67,12.25 13.89,23.03 25.95,28.46 10.540004,4.81 22.590004,5.43 33.900004,3.48 6.32,-0.85 12.29,-3.13 18.44,-4.69 -21.52,14.69 -48.460004,22.05 -74.410004,18.32 -18.48,-2.65 -35.89,-12.38 -47.48,-27.06 -10.960001,-13.22 -16.2800007,-29.94 -20.2600007,-46.37 z"
       id="path8394-4" />
    <path
       inkscape:connector-curvature="0"
       style="fill:#f36618"
       d="m 139.37158,375.17897 c 7.87,-7.07 15.1,-14.81 21.95,-22.84 6.97,5.28 13.81,10.8 21.4,15.19 2.64,1.54 5.08,3.4 7.47,5.3 -8.31,7.08 -16.46,14.35 -25.05,21.1 -8.85,-5.89 -17.41,-12.19 -25.77,-18.75 z"
       id="path8396-2" />
    <path
       inkscape:connector-curvature="0"
       style="fill:#f14e1c"
       d="m 463.88158,364.02897 c 3.02,-2.62 4.77,-6.79 8.81,-8.07 10.73,2.03 21.68,3.17 32.61,3.04 -0.07,0.37 -0.21,1.11 -0.28,1.48 -1.92,-0.82 -4.01,-0.38 -5.17,1.43 -13.25,16.69 -28.84,31.42 -45.68,44.44 -5.19,4.11 -11.15,7.24 -15.8,12.01 -1.95,0.44 -3.91,0.84 -5.89,1.13 -5.33,-6.05 -10.81,-11.94 -16.32,-17.81 2.6,-2.66 5.94,-4.35 9.05,-6.32 13.93,-9.1 26.55,-20 38.67,-31.33 z"
       id="path8398-9" />
    <path
       inkscape:connector-curvature="0"
       style="fill:#f0421e"
       d="m 499.85158,361.90897 c 1.16,-1.81 3.25,-2.25 5.17,-1.43 -0.94,4.21 -2.39,8.3 -4.2,12.22 -5.26,11.02 -13.32,20.61 -22.89,28.14 -8.88,6.8 -19.13,11.66 -29.8,14.95 -3.22,0.98 -6.48,1.84 -9.76,2.57 4.65,-4.77 10.61,-7.9 15.8,-12.01 16.84,-13.02 32.43,-27.75 45.68,-44.44 z"
       id="path8400-5" />
    <path
       inkscape:connector-curvature="0"
       style="fill:#f14e1c"
       d="m 108.99158,395.21897 c 11.41,-4.44 21.37,-11.88 30.38,-20.04 8.36,6.56 16.92,12.86 25.77,18.75 -5.97,4.75 -12.06,9.35 -18.28,13.76 -6.15,1.56 -12.12,3.84 -18.44,4.69 -6.11,-6.14 -13.82,-10.52 -19.43,-17.16 z"
       id="path8402-6" />
    <path
       inkscape:connector-curvature="0"
       style="fill:#368dca"
       d="m 589.59158,384.77897 c 3.41,-2.79 6.61,-5.86 10.45,-8.08 -5.04,18.13 -14.48,34.97 -27.07,48.95 -5.58,1.36 -10.87,3.65 -16.43,5.06 -12.34,3.36 -25.1,5.66 -37.93,5 -10.09,0.52 -20.15,-0.94 -29.98,-3.09 -8.58,-1.77 -17.02,-4.31 -24.99,-7.94 -5.42,-2.43 -11.49,-4.26 -15.51,-8.89 10.67,-3.29 20.92,-8.15 29.8,-14.95 6.24,3.9 13.69,5.17 20.81,6.58 6.54,1.47 13.29,1.02 19.88,2.14 8.51,-1.22 17.25,-0.67 25.57,-3.2 16.53,-3.6 32.03,-11.28 45.4,-21.58 z"
       id="path8404-6" />
    <path
       inkscape:connector-curvature="0"
       style="fill:#f03c1f"
       d="m 68.571576,380.43897 c 2.95,5.24 6.34,10.62 11.69,13.72 8.63,5.16 19.589999,4.53 28.730004,1.06 5.61,6.64 13.32,11.02 19.43,17.16 -11.31,1.95 -23.36,1.33 -33.900004,-3.48 -12.06,-5.43 -21.28,-16.21 -25.95,-28.46 z"
       id="path8406-5" />
    <path
       inkscape:connector-curvature="0"
       style="fill:#2766ae"
       d="m 314.62158,404.44897 c 14.92,5.87 30.37,10.56 46.18,13.26 1.65,0.3 3.31,0.58 4.98,0.84 -0.51,0.14 -1.51,0.4 -2.01,0.53 1.96,3.72 5.24,6.39 7.92,9.54 4.09,5.21 8.86,9.88 14.02,14.03 15.47,13.89 33.05,25.4 51.95,34.04 l -1.82,0.22 c -30.95,-1.96 -61.3,-10.93 -88.98,-24.78 -0.96,-2.99 -3.39,-5.02 -5.44,-7.25 -9.6,-11.05 -17.54,-23.41 -25.08,-35.92 -0.8,-1.41 -1.24,-2.98 -1.72,-4.51 z"
       id="path8408-9" />
    <path
       inkscape:connector-curvature="0"
       style="fill:#3282c3"
       d="m 438.37158,418.35897 c 3.28,-0.73 6.54,-1.59 9.76,-2.57 4.02,4.63 10.09,6.46 15.51,8.89 7.97,3.63 16.41,6.17 24.99,7.94 9.83,2.15 19.89,3.61 29.98,3.09 12.83,0.66 25.59,-1.64 37.93,-5 5.56,-1.41 10.85,-3.7 16.43,-5.06 -10.32,11.39 -22.44,21.16 -35.78,28.79 -2.84,-0.93 -5.75,-0.19 -8.6,0.16 -37.42,2.09 -75.74,-9.08 -105.58,-31.91 0.11,-0.49 0.32,-1.49 0.43,-1.98 3.02,-0.37 6.02,-0.84 9.04,-1.22 1.98,-0.29 3.94,-0.69 5.89,-1.13 z"
       id="path8410-7" />
    <path
       inkscape:connector-curvature="0"
       style="fill:#2b71b6"
       d="m 363.77158,419.07897 c 0.5,-0.13 1.5,-0.39 2.01,-0.53 10.11,1.7 20.33,2.71 30.57,3.2 -0.06,0.46 -0.19,1.39 -0.25,1.85 15.03,15.71 34.28,26.66 53.87,35.71 6.49,2.77 13.27,4.78 19.96,7.01 7.99,2.54 16.47,3.03 24.43,5.62 -9.58,2.37 -19.33,4.33 -29.2,4.89 -3.54,-0.22 -7.08,-0.02 -10.61,0.25 -5.64,0.45 -11.25,-0.48 -16.89,-0.39 -18.9,-8.64 -36.48,-20.15 -51.95,-34.04 -5.16,-4.15 -9.93,-8.82 -14.02,-14.03 -2.68,-3.15 -5.96,-5.82 -7.92,-9.54 z"
       id="path8412-7" />
    <path
       inkscape:connector-curvature="0"
       style="fill:#2f7abd"
       d="m 396.35158,421.74897 c 9.05,0.26 18.09,-0.02 27.09,-1.04 -0.11,0.49 -0.32,1.49 -0.43,1.98 29.84,22.83 68.16,34 105.58,31.91 2.85,-0.35 5.76,-1.09 8.6,-0.16 -13.36,7.83 -27.87,13.58 -42.83,17.5 -7.96,-2.59 -16.44,-3.08 -24.43,-5.62 -6.69,-2.23 -13.47,-4.24 -19.96,-7.01 -19.59,-9.05 -38.84,-20 -53.87,-35.71 0.06,-0.46 0.19,-1.39 0.25,-1.85 z"
       id="path8414-9" />
    <path
       inkscape:connector-curvature="0"
       style="fill:#8888a8"
       d="m 435.84158,476.90897 1.82,-0.22 c 5.64,-0.09 11.25,0.84 16.89,0.39 3.53,-0.27 7.07,-0.47 10.61,-0.25 l -1.85,0.91 -26.48,0 -0.99,-0.83 z"
       id="path8416-4" />
  </g>
</svg>
